<svg xmlns="http://www.w3.org/2000/svg" xmlns:xlink="http://www.w3.org/1999/xlink" width="1080" zoomAndPan="magnify" viewBox="0 0 810 809.999993" height="1080" preserveAspectRatio="xMidYMid meet" version="1.2"><defs><clipPath id="a99e29e9ce"><path d="M 131.117188 2 L 678 2 L 678 636 L 131.117188 636 Z M 131.117188 2 "/></clipPath><clipPath id="d18ca73707"><path d="M 353.941406 475.996094 L 368.941406 475.996094 L 368.941406 625.996094 L 353.941406 625.996094 Z M 353.941406 475.996094 "/></clipPath><clipPath id="3b40fec06d"><rect x="0" width="384" y="0" height="354"/></clipPath><clipPath id="daf761913a"><path d="M 272 352 L 369 352 L 369 485 L 272 485 Z M 272 352 "/></clipPath><clipPath id="9778c8c8d1"><path d="M 284.5 352.140625 L 368.941406 476.113281 L 356.546875 484.558594 L 272.101562 360.585938 Z M 284.5 352.140625 "/></clipPath><clipPath id="7dddd53192"><path d="M 284.5 352.140625 L 368.941406 476.113281 L 356.546875 484.558594 L 272.101562 360.585938 Z M 284.5 352.140625 "/></clipPath><clipPath id="b4e9640e88"><path d="M 440.976562 471.484375 L 455.976562 471.484375 L 455.976562 621.484375 L 440.976562 621.484375 Z M 440.976562 471.484375 "/></clipPath><clipPath id="45afb1def0"><path d="M 0.976562 0.484375 L 15.976562 0.484375 L 15.976562 150.484375 L 0.976562 150.484375 Z M 0.976562 0.484375 "/></clipPath><clipPath id="c92c06a10b"><rect x="0" width="16" y="0" height="151"/></clipPath><clipPath id="549b3a741e"><path d="M 440 347 L 538 347 L 538 480 L 440 480 Z M 440 347 "/></clipPath><clipPath id="9afbb05996"><path d="M 537.898438 356.082031 L 453.371094 479.996094 L 440.976562 471.542969 L 525.507812 347.628906 Z M 537.898438 356.082031 "/></clipPath><clipPath id="4ed5b2b8ed"><path d="M 0.878906 0.519531 L 98 0.519531 L 98 133 L 0.878906 133 Z M 0.878906 0.519531 "/></clipPath><clipPath id="7f77886066"><path d="M 97.898438 9.082031 L 13.371094 132.996094 L 0.976562 124.542969 L 85.507812 0.628906 Z M 97.898438 9.082031 "/></clipPath><clipPath id="80db080aad"><path d="M 0.976562 124.542969 L 85.507812 0.628906 L 97.898438 9.082031 L 13.371094 132.996094 Z M 0.976562 124.542969 "/></clipPath><clipPath id="7a39bd4211"><rect x="0" width="98" y="0" height="133"/></clipPath></defs><g id="fdafbfcfa6"><path style=" stroke:none;fill-rule:evenodd;fill:#f5f5f5;fill-opacity:1;" d="M 311.769531 648.445312 C 297.089844 650.769531 295.953125 672.609375 308.617188 677.699219 C 313.34375 679.636719 323.777344 678.644531 331.578125 678.628906 C 381.859375 678.628906 427.914062 678.628906 476.90625 678.617188 C 485.441406 678.644531 495.628906 679.578125 500.328125 677.699219 C 504.578125 676 509.042969 670.71875 509.304688 664.195312 C 509.605469 657.777344 506.058594 652.113281 501.648438 649.851562 C 496.71875 647.269531 489.695312 648.023438 480.082031 648.03125 C 472.960938 647.988281 466.355469 647.988281 456.210938 648.015625 C 423.402344 648.046875 391.503906 647.988281 360.839844 648 C 345.8125 648.015625 326.039062 646.285156 312.699219 648.460938 C 312.390625 648.480469 312.078125 648.472656 311.769531 648.445312 Z M 311.769531 648.445312 "/><path style=" stroke:none;fill-rule:evenodd;fill:#f5f5f5;fill-opacity:1;" d="M 308.164062 720.957031 C 312.546875 722.953125 322.597656 722.246094 331.132812 722.269531 C 381.054688 722.269531 428.09375 722.300781 477.363281 722.269531 C 485.679688 722.285156 496.0625 723.101562 500.765625 720.941406 C 501.976562 720.304688 503.085938 719.527344 504.097656 718.609375 C 505.109375 717.6875 505.988281 716.65625 506.738281 715.515625 C 507.488281 714.371094 508.078125 713.152344 508.515625 711.855469 C 508.953125 710.5625 509.222656 709.230469 509.320312 707.867188 C 509.425781 706.371094 509.316406 704.890625 508.996094 703.425781 C 508.675781 701.957031 508.152344 700.566406 507.433594 699.25 C 506.714844 697.933594 505.824219 696.742188 504.765625 695.679688 C 503.703125 694.617188 502.515625 693.726562 501.199219 693.003906 C 496.359375 690.683594 488.285156 691.675781 479.152344 691.660156 C 472.386719 691.628906 465.414062 691.644531 455.320312 691.644531 C 414.375 691.660156 376.050781 691.628906 336.070312 691.660156 C 328.578125 691.660156 317.867188 690.980469 311.761719 692.160156 C 297.410156 694.75 295.460938 715.03125 308.164062 720.957031 Z M 308.164062 720.957031 "/><path style=" stroke:none;fill-rule:evenodd;fill:#f5f5f5;fill-opacity:1;" d="M 323.914062 765.027344 C 328.46875 766.503906 336.765625 765.457031 343.722656 765.457031 C 385.953125 765.457031 423.5 765.472656 465.214844 765.484375 C 472.585938 765.472656 480.726562 766.417969 485.023438 765.011719 C 490.058594 763.398438 495.433594 756.285156 494.015625 747.015625 C 493.453125 743.289062 489.777344 736.882812 485.023438 735.332031 C 480.867188 733.941406 470.820312 734.902344 465.65625 734.875 C 431.308594 734.886719 399.648438 734.875 366.203125 734.886719 C 354.089844 734.886719 336.183594 733.097656 325.738281 735.347656 C 311.203125 738.40625 312.398438 761.285156 323.914062 765.027344 Z M 323.914062 765.027344 "/><path style=" stroke:none;fill-rule:evenodd;fill:#f5f5f5;fill-opacity:1;" d="M 352.699219 791.601562 C 352.011719 798.523438 356.125 805.535156 361.699219 807.765625 C 366.238281 809.570312 375.875 808.667969 382.417969 808.652344 C 397.730469 808.652344 411.058594 808.667969 426.058594 808.699219 C 433.335938 808.699219 442.394531 809.703125 447.230469 807.765625 C 459.03125 803.078125 459.152344 784.503906 447.222656 779.417969 C 441.617188 777.007812 434.828125 778.101562 428.308594 778.054688 C 419.722656 778.085938 414.800781 778.070312 408.078125 778.101562 C 394.429688 778.070312 378.554688 776.796875 366.675781 778.511719 C 361.789062 779.226562 353.730469 781.621094 352.699219 791.601562 Z M 352.699219 791.601562 "/><g clip-rule="nonzero" clip-path="url(#a99e29e9ce)"><path style=" stroke:none;fill-rule:evenodd;fill:#f5f5f5;fill-opacity:1;" d="M 397.257812 2.265625 C 439.589844 0.269531 481.125 10.242188 511.109375 22.960938 C 543.148438 36.613281 570.753906 54.492188 593.011719 75.652344 C 616.359375 97.800781 635.890625 122.171875 650.605469 152.5625 C 664.671875 181.542969 676.398438 217.140625 677.609375 260.121094 C 678.875 306.21875 670.847656 344.042969 656.886719 373.988281 C 635.34375 420.269531 596.335938 447.230469 575.03125 494.125 C 567.34375 510.875 562.542969 528.414062 560.617188 546.742188 C 559.390625 557.480469 558.132812 566.546875 555.191406 575.125 C 549.644531 591.421875 540.34375 603.84375 529.5625 616.976562 C 523.5 624.328125 517.804688 632.328125 509.773438 634.515625 C 503.339844 636.273438 493.847656 635.402344 484.101562 635.433594 C 430.652344 635.386719 380.1875 635.417969 326.601562 635.417969 C 315.480469 635.402344 303.238281 636.527344 296 633.183594 C 289.902344 630.300781 284.917969 623.179688 279.359375 616.507812 C 274.1875 610.5 269.394531 604.203125 264.972656 597.621094 C 255.5625 583.144531 250.609375 568.089844 248.296875 548.136719 C 246.007812 527.953125 241.582031 511.578125 234.359375 495.460938 C 213.730469 449.542969 175.617188 421.855469 153.351562 377.585938 C 138.855469 348.707031 131.320312 311.617188 131.332031 267.300781 C 131.269531 257.929688 131.726562 248.582031 132.703125 239.261719 C 133.679688 229.941406 135.171875 220.703125 137.175781 211.546875 C 139.179688 202.390625 141.6875 193.375 144.695312 184.496094 C 147.703125 175.621094 151.191406 166.9375 155.164062 158.449219 C 169.207031 128.070312 188.425781 102.6875 210.070312 81.007812 C 218.84375 72.304688 228.167969 64.242188 238.046875 56.816406 C 247.929688 49.394531 258.269531 42.679688 269.066406 36.675781 C 279.867188 30.667969 291.027344 25.429688 302.546875 20.953125 C 314.066406 16.480469 325.835938 12.8125 337.859375 9.953125 C 356.019531 5.511719 375.402344 3.351562 397.257812 2.265625 Z M 434.621094 594.484375 C 450.0625 594.46875 464.132812 594.46875 479.179688 594.46875 C 484.105469 594.496094 490.636719 595.621094 494.460938 594.46875 C 496.441406 593.847656 498.238281 590.355469 500.316406 587.707031 C 502.527344 584.910156 504.78125 582.503906 506.1875 580.519531 C 514.578125 568.570312 518.152344 558.53125 520.125 541.316406 C 526.816406 482.976562 553.347656 446.507812 582.652344 410.878906 C 598.890625 391.15625 615.816406 369.742188 625.414062 343.367188 C 634.847656 317.4375 639.730469 280.964844 635.738281 244.824219 C 628.824219 181.570312 598.195312 134.226562 559.722656 100.359375 C 540.488281 83.464844 518.421875 69.707031 490.875 58.964844 C 475.589844 53.144531 459.878906 48.914062 443.738281 46.265625 C 427.601562 43.621094 411.359375 42.613281 395.019531 43.246094 C 324.679688 46.511719 273.859375 74.863281 235.730469 112.980469 C 216.769531 131.925781 201.351562 154.746094 189.824219 181.367188 C 177.910156 208.933594 171.050781 239.996094 172.261719 278.582031 C 173.429688 315.835938 182.160156 344.828125 196.117188 369.023438 C 210.0625 393.179688 228.070312 412.019531 245.171875 434.707031 C 260.339844 454.910156 275.234375 480.492188 283.421875 510.75 C 287.414062 525.597656 287.296875 544.425781 291.960938 559.375 C 295.253906 569.890625 301.28125 578.558594 307.691406 586.839844 C 309.917969 589.648438 312.179688 593.757812 314.449219 594.46875 C 318.050781 595.578125 324.210938 594.484375 328.867188 594.484375 C 344.21875 594.46875 358.851562 594.5 373.441406 594.484375 L 383.769531 594.484375 C 397.28125 594.46875 410.753906 594.5 424.261719 594.46875 Z M 434.621094 594.484375 "/></g><path style=" stroke:none;fill-rule:evenodd;fill:#f5f5f5;fill-opacity:1;" d="M 312.695312 648.460938 C 326.039062 646.285156 345.808594 648.015625 360.832031 648 C 391.496094 647.988281 423.398438 648.046875 456.207031 648.015625 C 466.351562 647.988281 472.957031 647.988281 480.078125 648.03125 C 489.691406 648.015625 496.714844 647.261719 501.644531 649.851562 C 506.058594 652.109375 509.601562 657.777344 509.296875 664.195312 C 509.03125 670.71875 504.574219 676 500.320312 677.699219 C 495.621094 679.578125 485.4375 678.644531 476.902344 678.617188 C 427.910156 678.628906 381.855469 678.628906 331.574219 678.628906 C 323.773438 678.644531 313.339844 679.636719 308.613281 677.699219 C 295.949219 672.609375 297.085938 650.769531 311.765625 648.445312 C 312.074219 648.472656 312.386719 648.480469 312.695312 648.460938 Z M 312.695312 648.460938 "/><path style=" stroke:none;fill-rule:evenodd;fill:#f5f5f5;fill-opacity:1;" d="M 311.769531 692.160156 C 317.871094 690.976562 328.582031 691.660156 336.074219 691.660156 C 376.054688 691.628906 414.378906 691.660156 455.324219 691.644531 C 465.417969 691.644531 472.390625 691.628906 479.15625 691.660156 C 488.289062 691.675781 496.363281 690.683594 501.207031 693.003906 C 502.519531 693.726562 503.710938 694.617188 504.769531 695.679688 C 505.828125 696.742188 506.71875 697.933594 507.4375 699.25 C 508.160156 700.566406 508.679688 701.957031 509 703.425781 C 509.320312 704.890625 509.429688 706.371094 509.324219 707.867188 C 509.226562 709.230469 508.957031 710.5625 508.519531 711.855469 C 508.082031 713.152344 507.492188 714.371094 506.742188 715.515625 C 505.992188 716.65625 505.113281 717.6875 504.101562 718.609375 C 503.089844 719.527344 501.980469 720.304688 500.769531 720.941406 C 496.066406 723.101562 485.683594 722.285156 477.367188 722.269531 C 428.097656 722.300781 381.054688 722.269531 331.136719 722.269531 C 322.601562 722.242188 312.550781 722.953125 308.167969 720.957031 C 295.460938 715.03125 297.410156 694.75 311.769531 692.160156 Z M 311.769531 692.160156 "/><path style=" stroke:none;fill-rule:evenodd;fill:#f5f5f5;fill-opacity:1;" d="M 325.738281 735.34375 C 336.175781 733.097656 354.089844 734.886719 366.203125 734.886719 C 399.648438 734.871094 431.3125 734.886719 465.65625 734.871094 C 470.820312 734.902344 480.867188 733.941406 485.023438 735.328125 C 489.777344 736.882812 493.453125 743.285156 494.015625 747.011719 C 495.4375 756.285156 490.058594 763.398438 485.023438 765.011719 C 480.726562 766.417969 472.585938 765.472656 465.214844 765.484375 C 423.503906 765.472656 385.953125 765.457031 343.722656 765.457031 C 336.765625 765.457031 328.46875 766.503906 323.914062 765.027344 C 312.398438 761.285156 311.203125 738.40625 325.738281 735.34375 Z M 325.738281 735.34375 "/><path style=" stroke:none;fill-rule:evenodd;fill:#f5f5f5;fill-opacity:1;" d="M 366.683594 778.511719 C 378.558594 776.796875 394.433594 778.066406 408.085938 778.097656 C 414.800781 778.066406 419.722656 778.082031 428.3125 778.050781 C 434.835938 778.097656 441.625 777.003906 447.230469 779.414062 C 459.15625 784.5 459.039062 803.074219 447.238281 807.761719 C 442.394531 809.699219 433.34375 808.695312 426.066406 808.695312 C 411.0625 808.664062 397.738281 808.648438 382.425781 808.648438 C 375.878906 808.664062 366.246094 809.566406 361.703125 807.761719 C 356.128906 805.53125 352.019531 798.519531 352.707031 791.597656 C 353.730469 781.621094 361.789062 779.226562 366.683594 778.511719 Z M 366.683594 778.511719 "/><g clip-rule="nonzero" clip-path="url(#d18ca73707)"><path style=" stroke:none;fill-rule:nonzero;fill:#f5f5f5;fill-opacity:1;" d="M 368.941406 475.996094 L 353.941406 475.996094 L 353.941406 625.996094 L 368.941406 625.996094 Z M 368.941406 475.996094 "/></g><g transform="matrix(1,0,0,1,214,49)"><g clip-path="url(#3b40fec06d)"><g style="fill:#f5f5f5;fill-opacity:1;"><g transform="translate(0.263098, 275.913448)"><path style="stroke:none" d="M 177.6875 -94.75 C 177.6875 -64.144531 168.972656 -40.703125 151.546875 -24.421875 C 134.117188 -8.140625 108.957031 0 76.0625 0 L 23.40625 0 L 23.40625 -185.953125 L 81.78125 -185.953125 C 112.132812 -185.953125 135.707031 -177.9375 152.5 -161.90625 C 169.289062 -145.882812 177.6875 -123.5 177.6875 -94.75 Z M 136.734375 -93.734375 C 136.734375 -133.671875 119.09375 -153.640625 83.8125 -153.640625 L 62.828125 -153.640625 L 62.828125 -32.5625 L 79.75 -32.5625 C 117.738281 -32.5625 136.734375 -52.953125 136.734375 -93.734375 Z M 136.734375 -93.734375 "/></g><g transform="translate(193.078449, 275.913448)"><path style="stroke:none" d="M 94 -104.421875 L 167.765625 -104.421875 L 167.765625 -8.015625 C 155.804688 -4.109375 144.546875 -1.375 133.984375 0.1875 C 123.429688 1.757812 112.644531 2.546875 101.625 2.546875 C 73.5625 2.546875 52.128906 -5.695312 37.328125 -22.1875 C 22.535156 -38.6875 15.140625 -62.367188 15.140625 -93.234375 C 15.140625 -123.242188 23.722656 -146.644531 40.890625 -163.4375 C 58.054688 -180.226562 81.863281 -188.625 112.3125 -188.625 C 131.382812 -188.625 149.785156 -184.804688 167.515625 -177.171875 L 154.40625 -145.625 C 140.84375 -152.414062 126.722656 -155.8125 112.046875 -155.8125 C 95.003906 -155.8125 81.351562 -150.085938 71.09375 -138.640625 C 60.832031 -127.191406 55.703125 -111.800781 55.703125 -92.46875 C 55.703125 -72.289062 59.835938 -56.878906 68.109375 -46.234375 C 76.378906 -35.585938 88.398438 -30.265625 104.171875 -30.265625 C 112.390625 -30.265625 120.738281 -31.113281 129.21875 -32.8125 L 129.21875 -71.609375 L 94 -71.609375 Z M 94 -104.421875 "/></g></g></g></g><g clip-rule="nonzero" clip-path="url(#daf761913a)"><g clip-rule="nonzero" clip-path="url(#9778c8c8d1)"><g clip-rule="nonzero" clip-path="url(#7dddd53192)"><path style=" stroke:none;fill-rule:nonzero;fill:#f5f5f5;fill-opacity:1;" d="M 284.5 352.140625 L 272.101562 360.585938 L 356.546875 484.558594 L 368.941406 476.113281 Z M 284.5 352.140625 "/></g></g></g><g clip-rule="nonzero" clip-path="url(#b4e9640e88)"><g transform="matrix(1,0,0,1,440,471)"><g clip-path="url(#c92c06a10b)"><g clip-rule="nonzero" clip-path="url(#45afb1def0)"><path style=" stroke:none;fill-rule:nonzero;fill:#f5f5f5;fill-opacity:1;" d="M 0.976562 150.484375 L 15.976562 150.484375 L 15.976562 0.484375 L 0.976562 0.484375 Z M 0.976562 150.484375 "/></g></g></g></g><g clip-rule="nonzero" clip-path="url(#549b3a741e)"><g clip-rule="nonzero" clip-path="url(#9afbb05996)"><g transform="matrix(1,0,0,1,440,347)"><g clip-path="url(#7a39bd4211)"><g clip-rule="nonzero" clip-path="url(#4ed5b2b8ed)"><g clip-rule="nonzero" clip-path="url(#7f77886066)"><g clip-rule="nonzero" clip-path="url(#80db080aad)"><path style=" stroke:none;fill-rule:nonzero;fill:#f5f5f5;fill-opacity:1;" d="M 0.976562 124.542969 L 13.371094 132.996094 L 97.898438 9.082031 L 85.507812 0.628906 Z M 0.976562 124.542969 "/></g></g></g></g></g></g></g></g></svg>