<svg xmlns="http://www.w3.org/2000/svg" xmlns:xlink="http://www.w3.org/1999/xlink" width="1000" zoomAndPan="magnify" viewBox="0 0 750 749.999995" height="1000" preserveAspectRatio="xMidYMid meet" version="1.2"><defs><clipPath id="53bea11f9a"><path d="M 0 15.46875 L 750 15.46875 L 750 734.71875 L 0 734.71875 Z M 0 15.46875 "/></clipPath></defs><g id="bcb2a2f8b0"><rect x="0" width="750" y="0" height="749.999995" style="fill:#ffffff;fill-opacity:1;stroke:none;"/><rect x="0" width="750" y="0" height="749.999995" style="fill:#ffffff;fill-opacity:1;stroke:none;"/><g clip-rule="nonzero" clip-path="url(#53bea11f9a)"><path style=" stroke:none;fill-rule:nonzero;fill:#0b2545;fill-opacity:1;" d="M 712.480469 338.152344 C 696.515625 338.152344 682.863281 348.179688 677.464844 362.257812 L 548.898438 362.257812 L 548.898438 292.621094 L 613.183594 292.621094 C 618.582031 306.699219 632.242188 316.726562 648.199219 316.726562 C 668.875 316.726562 685.695312 299.90625 685.695312 279.230469 C 685.695312 258.550781 668.875 241.730469 648.199219 241.730469 C 632.234375 241.730469 618.582031 251.757812 613.183594 265.835938 L 548.890625 265.835938 C 548.4375 222.019531 512.671875 186.503906 468.746094 186.484375 L 468.746094 161.574219 C 482.824219 156.175781 492.851562 142.515625 492.851562 126.558594 C 492.851562 105.882812 476.03125 89.0625 455.351562 89.0625 C 434.675781 89.0625 417.855469 105.882812 417.855469 126.558594 C 417.855469 142.515625 427.878906 156.175781 441.960938 161.574219 L 441.960938 186.484375 L 372.320312 186.484375 L 372.320312 87.980469 C 386.402344 82.582031 396.425781 68.921875 396.425781 52.964844 C 396.425781 32.289062 379.605469 15.46875 358.929688 15.46875 C 338.253906 15.46875 321.433594 32.289062 321.433594 52.964844 C 321.433594 68.921875 331.457031 82.582031 345.539062 87.980469 L 345.539062 186.484375 L 275.898438 186.484375 L 275.898438 145.503906 C 289.976562 140.105469 300.003906 126.445312 300.003906 110.488281 C 300.003906 89.8125 283.183594 72.992188 262.507812 72.992188 C 241.828125 72.992188 225.007812 89.8125 225.007812 110.488281 C 225.007812 126.445312 235.035156 140.105469 249.113281 145.503906 L 249.113281 186.484375 L 243.660156 186.484375 C 199.726562 186.484375 163.933594 222.007812 163.476562 265.835938 L 136.820312 265.835938 C 131.417969 251.757812 117.757812 241.730469 101.800781 241.730469 C 81.125 241.730469 64.304688 258.550781 64.304688 279.230469 C 64.304688 299.90625 81.125 316.726562 101.800781 316.726562 C 117.757812 316.726562 131.417969 306.699219 136.820312 292.621094 L 163.46875 292.621094 L 163.46875 362.257812 L 72.535156 362.257812 C 67.136719 348.179688 53.476562 338.152344 37.519531 338.152344 C 16.84375 338.152344 0.0234375 354.972656 0.0234375 375.652344 C 0.0234375 396.328125 16.84375 413.148438 37.519531 413.148438 C 53.476562 413.148438 67.136719 403.125 72.535156 389.042969 L 163.46875 389.042969 L 163.46875 458.683594 L 104.675781 458.683594 C 99.277344 444.601562 85.617188 434.578125 69.660156 434.578125 C 48.984375 434.578125 32.164062 451.398438 32.164062 472.074219 C 32.164062 492.75 48.984375 509.570312 69.660156 509.570312 C 85.617188 509.570312 99.277344 499.546875 104.675781 485.464844 L 163.851562 485.464844 C 167.789062 526.035156 202.082031 557.847656 243.660156 557.847656 L 249.113281 557.847656 L 249.113281 613.824219 C 235.035156 619.226562 225.007812 632.886719 225.007812 648.839844 C 225.007812 669.515625 241.828125 686.335938 262.507812 686.335938 C 283.183594 686.335938 300.003906 669.515625 300.003906 648.839844 C 300.003906 632.875 289.976562 619.226562 275.898438 613.824219 L 275.898438 557.847656 L 345.539062 557.847656 L 345.539062 662.035156 C 331.457031 667.4375 321.433594 681.097656 321.433594 697.050781 C 321.433594 717.730469 338.253906 734.550781 358.929688 734.550781 C 379.605469 734.550781 396.425781 717.730469 396.425781 697.050781 C 396.425781 681.089844 386.402344 667.4375 372.320312 662.035156 L 372.320312 557.847656 L 441.960938 557.847656 L 441.960938 629.894531 C 427.878906 635.296875 417.855469 648.957031 417.855469 664.910156 C 417.855469 685.585938 434.675781 702.410156 455.351562 702.410156 C 476.03125 702.410156 492.851562 685.585938 492.851562 664.910156 C 492.851562 648.949219 482.824219 635.296875 468.746094 629.894531 L 468.746094 557.835938 C 510.3125 557.820312 544.585938 526.007812 548.523438 485.457031 L 597.109375 485.457031 C 602.511719 499.535156 616.171875 509.5625 632.125 509.5625 C 652.804688 509.5625 669.625 492.742188 669.625 472.066406 C 669.625 451.386719 652.804688 434.566406 632.125 434.566406 C 616.164062 434.566406 602.511719 444.59375 597.109375 458.671875 L 548.898438 458.671875 L 548.898438 389.035156 L 677.464844 389.035156 C 682.863281 403.113281 696.523438 413.140625 712.480469 413.140625 C 733.15625 413.140625 749.976562 396.320312 749.976562 375.644531 C 749.976562 354.964844 733.15625 338.144531 712.480469 338.144531 Z M 648.199219 268.515625 C 654.109375 268.515625 658.910156 273.320312 658.910156 279.230469 C 658.910156 285.140625 654.109375 289.941406 648.199219 289.941406 C 642.285156 289.941406 637.484375 285.140625 637.484375 279.230469 C 637.484375 273.320312 642.285156 268.515625 648.199219 268.515625 Z M 358.929688 42.253906 C 364.839844 42.253906 369.644531 47.054688 369.644531 52.964844 C 369.644531 58.875 364.839844 63.679688 358.929688 63.679688 C 353.019531 63.679688 348.214844 58.875 348.214844 52.964844 C 348.214844 47.054688 353.019531 42.253906 358.929688 42.253906 Z M 262.507812 99.777344 C 268.417969 99.777344 273.21875 104.578125 273.21875 110.488281 C 273.21875 116.398438 268.417969 121.203125 262.507812 121.203125 C 256.597656 121.203125 251.792969 116.398438 251.792969 110.488281 C 251.792969 104.578125 256.597656 99.777344 262.507812 99.777344 Z M 101.800781 289.941406 C 95.890625 289.941406 91.089844 285.140625 91.089844 279.230469 C 91.089844 273.320312 95.890625 268.515625 101.800781 268.515625 C 107.714844 268.515625 112.515625 273.320312 112.515625 279.230469 C 112.515625 285.140625 107.714844 289.941406 101.800781 289.941406 Z M 37.519531 386.367188 C 31.609375 386.367188 26.808594 381.5625 26.808594 375.652344 C 26.808594 369.742188 31.609375 364.9375 37.519531 364.9375 C 43.429688 364.9375 48.234375 369.742188 48.234375 375.652344 C 48.234375 381.5625 43.429688 386.367188 37.519531 386.367188 Z M 69.660156 482.789062 C 63.75 482.789062 58.949219 477.984375 58.949219 472.074219 C 58.949219 466.164062 63.75 461.359375 69.660156 461.359375 C 75.570312 461.359375 80.375 466.164062 80.375 472.074219 C 80.375 477.984375 75.570312 482.789062 69.660156 482.789062 Z M 262.507812 659.5625 C 256.597656 659.5625 251.792969 654.757812 251.792969 648.847656 C 251.792969 642.9375 256.597656 638.136719 262.507812 638.136719 C 268.417969 638.136719 273.21875 642.9375 273.21875 648.847656 C 273.21875 654.757812 268.417969 659.5625 262.507812 659.5625 Z M 358.929688 707.773438 C 353.019531 707.773438 348.214844 702.96875 348.214844 697.058594 C 348.214844 691.148438 353.019531 686.347656 358.929688 686.347656 C 364.839844 686.347656 369.644531 691.148438 369.644531 697.058594 C 369.644531 702.96875 364.839844 707.773438 358.929688 707.773438 Z M 455.351562 115.847656 C 461.261719 115.847656 466.066406 120.648438 466.066406 126.558594 C 466.066406 132.46875 461.261719 137.273438 455.351562 137.273438 C 449.441406 137.273438 444.636719 132.46875 444.636719 126.558594 C 444.636719 120.648438 449.441406 115.847656 455.351562 115.847656 Z M 455.351562 675.632812 C 449.441406 675.632812 444.636719 670.828125 444.636719 664.917969 C 444.636719 659.007812 449.441406 654.207031 455.351562 654.207031 C 461.261719 654.207031 466.066406 659.007812 466.066406 664.917969 C 466.066406 670.828125 461.261719 675.632812 455.351562 675.632812 Z M 632.125 461.359375 C 638.039062 461.359375 642.839844 466.164062 642.839844 472.074219 C 642.839844 477.984375 638.039062 482.789062 632.125 482.789062 C 626.214844 482.789062 621.414062 477.984375 621.414062 472.074219 C 621.414062 466.164062 626.214844 461.359375 632.125 461.359375 Z M 712.480469 386.367188 C 706.570312 386.367188 701.765625 381.5625 701.765625 375.652344 C 701.765625 369.742188 706.570312 364.9375 712.480469 364.9375 C 718.390625 364.9375 723.191406 369.742188 723.191406 375.652344 C 723.191406 381.5625 718.390625 386.367188 712.480469 386.367188 Z M 712.480469 386.367188 "/></g><path style=" stroke:none;fill-rule:nonzero;fill:#f5f5f5;fill-opacity:1;" d="M 376.910156 289.230469 L 315.421875 455.101562 L 355.734375 455.101562 C 355.734375 455.101562 365.894531 427.691406 365.894531 427.691406 L 428.925781 427.691406 C 428.925781 427.691406 439.273438 455.101562 439.273438 455.101562 L 479.652344 455.101562 C 479.652344 455.101562 418.105469 289.230469 418.105469 289.230469 Z M 378.1875 394.292969 L 397.660156 342.824219 L 416.578125 394.292969 Z M 378.1875 394.292969 "/><path style=" stroke:none;fill-rule:nonzero;fill:#f5f5f5;fill-opacity:1;" d="M 251.757812 289.230469 L 291.308594 289.230469 L 291.308594 455.101562 L 251.757812 455.101562 Z M 251.757812 289.230469 "/></g></svg>