<svg xmlns="http://www.w3.org/2000/svg" xmlns:xlink="http://www.w3.org/1999/xlink" width="1000" zoomAndPan="magnify" viewBox="0 0 750 749.999995" height="1000" preserveAspectRatio="xMidYMid meet" version="1.2"><defs><clipPath id="941cab0371"><path d="M 31.40625 0 L 718.40625 0 L 718.40625 750 L 31.40625 750 Z M 31.40625 0 "/></clipPath></defs><g id="e43b92ec68"><rect x="0" width="750" y="0" height="749.999995" style="fill:#ffffff;fill-opacity:1;stroke:none;"/><rect x="0" width="750" y="0" height="749.999995" style="fill:#ffffff;fill-opacity:1;stroke:none;"/><g clip-rule="nonzero" clip-path="url(#941cab0371)"><path style=" stroke:none;fill-rule:evenodd;fill:#0b2545;fill-opacity:1;" d="M 536.90625 333.613281 C 556.949219 338.382812 576.089844 346.332031 593.632812 357.132812 L 625.507812 342.976562 C 628.574219 341.613281 631.980469 342.246094 634.351562 344.617188 L 670.082031 380.347656 C 672.453125 382.71875 673.082031 386.125 671.722656 389.1875 L 657.570312 421.054688 C 668.378906 438.597656 676.324219 457.746094 681.089844 477.792969 L 713.609375 490.308594 C 716.738281 491.511719 718.699219 494.371094 718.699219 497.722656 L 718.699219 548.25 C 718.699219 551.601562 716.738281 554.460938 713.609375 555.664062 L 681.082031 568.183594 C 676.3125 588.226562 668.367188 607.367188 657.566406 624.90625 L 671.726562 656.785156 C 673.085938 659.847656 672.453125 663.253906 670.082031 665.625 L 634.351562 701.355469 C 631.984375 703.726562 628.574219 704.359375 625.507812 703 L 593.644531 688.847656 C 576.101562 699.652344 556.953125 707.597656 536.90625 712.367188 L 524.390625 744.882812 C 523.1875 748.011719 520.328125 749.972656 516.976562 749.972656 L 466.449219 749.972656 C 463.097656 749.972656 460.238281 748.011719 459.035156 744.882812 L 446.515625 712.355469 C 426.476562 707.585938 407.332031 699.640625 389.792969 688.84375 L 357.917969 703 C 354.851562 704.359375 351.445312 703.726562 349.074219 701.355469 L 313.34375 665.628906 C 310.976562 663.257812 310.34375 659.847656 311.703125 656.785156 L 325.855469 624.921875 C 315.046875 607.378906 307.105469 588.226562 302.335938 568.179688 L 269.816406 555.664062 C 266.691406 554.464844 264.726562 551.605469 264.726562 548.253906 L 264.726562 497.722656 C 264.726562 494.371094 266.691406 491.515625 269.816406 490.3125 L 302.339844 477.792969 C 307.109375 457.75 315.054688 438.605469 325.859375 421.0625 L 311.703125 389.191406 C 310.34375 386.128906 310.976562 382.71875 313.34375 380.351562 L 349.074219 344.617188 C 351.445312 342.25 354.855469 341.617188 357.917969 342.976562 L 389.792969 357.132812 C 407.335938 346.332031 426.476562 338.386719 446.519531 333.617188 L 459.039062 301.09375 C 460.242188 297.964844 463.101562 296 466.453125 296 L 516.980469 296 C 520.332031 296 523.191406 297.960938 524.394531 301.09375 Z M 255.230469 125.136719 C 319.335938 125.136719 377.085938 116.960938 418.625 103.738281 C 455.925781 91.867188 479 77.207031 479 62.582031 C 479 47.953125 455.925781 33.296875 418.625 21.425781 C 377.085938 8.203125 319.335938 0.0273438 255.230469 0.0273438 C 191.125 0.0273438 133.378906 8.203125 91.835938 21.425781 C 54.535156 33.296875 31.460938 47.957031 31.460938 62.582031 C 31.460938 77.210938 54.535156 91.867188 91.835938 103.738281 C 133.375 116.960938 191.125 125.136719 255.230469 125.136719 Z M 255.230469 456.484375 C 188.730469 456.484375 128.238281 447.8125 84.191406 433.792969 C 62.582031 426.917969 44.664062 418.515625 31.460938 408.917969 L 31.460938 521.46875 C 31.460938 536.097656 54.53125 550.753906 91.835938 562.625 C 133.375 575.847656 191.125 584.027344 255.230469 584.027344 C 260.945312 584.027344 266.613281 583.960938 272.222656 583.835938 L 260.679688 579.394531 C 247.742188 574.410156 239.300781 562.121094 239.300781 548.253906 L 239.300781 497.726562 C 239.300781 483.859375 247.738281 471.570312 260.679688 466.585938 L 281.191406 458.691406 C 281.464844 457.796875 281.742188 456.90625 282.027344 456.011719 C 273.226562 456.324219 264.28125 456.484375 255.230469 456.484375 Z M 92.464844 470.386719 C 109.347656 470.386719 123.03125 484.074219 123.03125 500.953125 C 123.03125 517.832031 109.347656 531.515625 92.464844 531.515625 C 75.585938 531.515625 61.902344 517.832031 61.902344 500.953125 C 61.902344 484.070312 75.585938 470.386719 92.464844 470.386719 Z M 426.269531 280.832031 C 382.226562 294.851562 321.730469 303.523438 255.230469 303.523438 C 188.730469 303.523438 128.238281 294.851562 84.191406 280.832031 C 62.582031 273.953125 44.667969 265.550781 31.460938 255.953125 L 31.460938 368.507812 C 31.460938 383.136719 54.535156 397.789062 91.835938 409.664062 C 133.378906 422.886719 191.125 431.066406 255.230469 431.066406 C 267.804688 431.066406 280.128906 430.75 292.140625 430.144531 C 293.796875 426.589844 295.546875 423.078125 297.394531 419.613281 L 288.464844 399.511719 C 282.867188 386.90625 285.613281 372.128906 295.367188 362.375 L 331.097656 326.644531 C 340.851562 316.890625 355.625 314.144531 368.230469 319.742188 L 388.339844 328.671875 C 400.808594 322.027344 413.898438 316.597656 427.414062 312.472656 L 435.308594 291.957031 C 440.289062 279.015625 452.582031 270.578125 466.449219 270.578125 L 479 270.578125 L 479 255.953125 C 465.792969 265.550781 447.878906 273.953125 426.269531 280.832031 Z M 92.464844 315.855469 C 109.347656 315.855469 123.03125 329.539062 123.03125 346.417969 C 123.03125 363.296875 109.347656 376.984375 92.464844 376.984375 C 75.585938 376.984375 61.902344 363.296875 61.902344 346.417969 C 61.902344 329.539062 75.585938 315.855469 92.464844 315.855469 Z M 479 215.542969 C 479 230.171875 455.925781 244.828125 418.625 256.699219 C 377.082031 269.921875 319.335938 278.101562 255.230469 278.101562 C 191.125 278.101562 133.375 269.921875 91.835938 256.699219 C 54.535156 244.828125 31.460938 230.171875 31.460938 215.542969 L 31.460938 102.992188 C 44.667969 112.589844 62.582031 120.992188 84.191406 127.871094 C 128.238281 141.886719 188.730469 150.5625 255.230469 150.5625 C 321.730469 150.5625 382.226562 141.890625 426.269531 127.871094 C 447.878906 120.992188 465.792969 112.589844 479 102.992188 Z M 92.464844 161.320312 C 75.585938 161.320312 61.902344 175.007812 61.902344 191.886719 C 61.902344 208.765625 75.585938 222.449219 92.464844 222.449219 C 109.347656 222.449219 123.03125 208.765625 123.03125 191.886719 C 123.03125 175.007812 109.347656 161.320312 92.464844 161.320312 Z M 456.269531 553.773438 L 419.734375 522.988281 L 456.269531 492.203125 C 461.617188 487.707031 462.304688 479.722656 457.808594 474.375 C 453.3125 469.03125 445.332031 468.339844 439.984375 472.835938 L 392.09375 513.191406 C 391.496094 513.679688 390.9375 514.230469 390.421875 514.84375 C 385.925781 520.191406 386.613281 528.171875 391.960938 532.667969 L 439.984375 573.136719 C 445.328125 577.632812 453.3125 576.945312 457.808594 571.597656 C 462.304688 566.25 461.617188 558.269531 456.269531 553.773438 Z M 543.4375 573.136719 L 591.460938 532.667969 C 596.804688 528.171875 597.496094 520.191406 593 514.84375 C 592.484375 514.230469 591.925781 513.679688 591.328125 513.191406 L 543.441406 472.835938 C 538.09375 468.339844 530.113281 469.027344 525.613281 474.375 C 521.117188 479.722656 521.804688 487.703125 527.152344 492.203125 L 563.6875 522.988281 L 527.152344 553.773438 C 521.808594 558.269531 521.117188 566.25 525.613281 571.597656 C 530.109375 576.945312 538.089844 577.632812 543.4375 573.136719 Z M 518.710938 574.707031 L 489.238281 464.714844 C 487.429688 457.941406 480.46875 453.917969 473.699219 455.726562 C 466.925781 457.539062 462.902344 464.496094 464.710938 471.269531 L 494.183594 581.257812 C 495.992188 588.03125 502.949219 592.054688 509.722656 590.246094 C 516.496094 588.4375 520.519531 581.480469 518.710938 574.707031 Z M 491.710938 394.527344 C 420.757812 394.527344 363.25 452.035156 363.25 522.988281 C 363.25 593.941406 420.757812 651.445312 491.710938 651.445312 C 562.664062 651.445312 620.171875 593.9375 620.171875 522.988281 C 620.171875 452.035156 562.664062 394.527344 491.710938 394.527344 Z M 491.710938 394.527344 "/></g></g></svg>