<svg xmlns="http://www.w3.org/2000/svg" xmlns:xlink="http://www.w3.org/1999/xlink" width="1000" zoomAndPan="magnify" viewBox="0 0 750 749.999995" height="1000" preserveAspectRatio="xMidYMid meet" version="1.2"><defs><clipPath id="1a00eb2119"><path d="M 1 28.59375 L 750 28.59375 L 750 721.59375 L 1 721.59375 Z M 1 28.59375 "/></clipPath></defs><g id="b50b4cdfb4"><g clip-rule="nonzero" clip-path="url(#1a00eb2119)"><path style=" stroke:none;fill-rule:nonzero;fill:#0b2545;fill-opacity:1;" d="M 403.347656 28.59375 C 212.066406 28.59375 57.007812 183.652344 57.007812 374.933594 C 56.984375 395.984375 58.867188 416.859375 62.65625 437.566406 C 66.449219 458.269531 72.085938 478.460938 79.566406 498.136719 L 2.488281 642.664062 C 1.941406 643.691406 1.546875 644.777344 1.300781 645.914062 C 1.058594 647.050781 0.972656 648.203125 1.050781 649.363281 C 1.128906 650.523438 1.363281 651.652344 1.757812 652.746094 C 2.152344 653.84375 2.691406 654.863281 3.371094 655.808594 C 4.050781 656.753906 4.847656 657.585938 5.757812 658.308594 C 6.671875 659.03125 7.667969 659.613281 8.742188 660.054688 C 9.820312 660.5 10.9375 660.785156 12.09375 660.914062 C 13.25 661.046875 14.402344 661.015625 15.550781 660.820312 L 173.742188 634.246094 C 181.570312 641.195312 189.695312 647.777344 198.125 653.984375 C 206.550781 660.195312 215.238281 666.011719 224.195312 671.429688 C 233.152344 676.851562 242.332031 681.851562 251.742188 686.433594 C 261.152344 691.019531 270.753906 695.164062 280.542969 698.875 C 290.328125 702.585938 300.265625 705.84375 310.347656 708.648438 C 320.433594 711.457031 330.625 713.796875 340.921875 715.675781 C 351.21875 717.554688 361.582031 718.960938 372.007812 719.898438 C 382.433594 720.832031 392.878906 721.292969 403.347656 721.277344 C 594.625 721.277344 749.691406 566.210938 749.691406 374.929688 C 749.691406 183.808594 594.46875 28.59375 403.347656 28.59375 Z M 404.375 630.953125 C 396.03125 630.996094 387.703125 630.632812 379.394531 629.859375 C 371.085938 629.085938 362.832031 627.910156 354.640625 626.328125 C 346.445312 624.746094 338.347656 622.765625 330.351562 620.390625 C 322.351562 618.015625 314.488281 615.253906 306.757812 612.105469 C 299.03125 608.957031 291.472656 605.4375 284.089844 601.550781 C 276.707031 597.660156 269.53125 593.417969 262.5625 588.828125 C 255.597656 584.234375 248.871094 579.3125 242.386719 574.058594 C 235.902344 568.804688 229.691406 563.25 223.75 557.386719 L 128.980469 574.503906 C 127.84375 574.695312 126.707031 574.726562 125.5625 574.601562 C 124.417969 574.476562 123.3125 574.199219 122.246094 573.769531 C 121.175781 573.339844 120.1875 572.769531 119.277344 572.066406 C 118.367188 571.359375 117.570312 570.542969 116.886719 569.617188 C 116.203125 568.691406 115.660156 567.691406 115.25 566.613281 C 114.84375 565.539062 114.59375 564.425781 114.492188 563.28125 C 114.394531 562.132812 114.453125 560.992188 114.671875 559.863281 C 114.886719 558.734375 115.253906 557.652344 115.769531 556.625 L 163.632812 465.011719 C 158.046875 450.148438 153.886719 434.898438 151.148438 419.257812 C 148.410156 403.617188 147.140625 387.859375 147.34375 371.984375 C 148.929688 231.402344 262.753906 118.910156 403.347656 118.910156 C 544.746094 118.910156 659.367188 233.539062 659.367188 374.929688 C 659.367188 516.214844 545.648438 630.398438 404.375 630.953125 Z M 404.375 630.953125 "/></g><path style=" stroke:none;fill-rule:nonzero;fill:#0b2545;fill-opacity:1;" d="M 367.152344 288.601562 L 355.976562 241.410156 C 355.65625 240.066406 355.269531 238.742188 354.8125 237.4375 C 354.355469 236.136719 353.828125 234.859375 353.238281 233.613281 C 352.644531 232.367188 351.988281 231.152344 351.269531 229.976562 C 350.550781 228.796875 349.769531 227.660156 348.929688 226.5625 C 348.089844 225.464844 347.195312 224.417969 346.246094 223.414062 C 345.296875 222.414062 344.296875 221.464844 343.246094 220.566406 C 342.195312 219.671875 341.101562 218.832031 339.964844 218.050781 C 338.824219 217.269531 337.648438 216.550781 336.433594 215.890625 C 335.222656 215.234375 333.976562 214.640625 332.699219 214.117188 C 331.421875 213.589844 330.121094 213.132812 328.796875 212.742188 C 327.472656 212.351562 326.132812 212.035156 324.773438 211.785156 C 323.414062 211.539062 322.046875 211.363281 320.671875 211.257812 C 319.292969 211.152344 317.914062 211.121094 316.535156 211.164062 C 315.152344 211.203125 313.78125 211.320312 312.410156 211.503906 C 311.042969 211.691406 309.6875 211.949219 308.347656 212.277344 C 307.007812 212.605469 305.6875 213.003906 304.386719 213.46875 L 278.609375 222.75 C 277.570312 223.125 276.546875 223.542969 275.539062 224.003906 C 274.535156 224.46875 273.550781 224.96875 272.589844 225.515625 C 271.625 226.058594 270.6875 226.644531 269.773438 227.265625 C 268.859375 227.890625 267.976562 228.550781 267.117188 229.25 C 266.261719 229.949219 265.433594 230.679688 264.636719 231.449219 C 263.839844 232.214844 263.078125 233.015625 262.351562 233.847656 C 261.621094 234.679688 260.929688 235.542969 260.273438 236.433594 C 259.617188 237.324219 259 238.242188 258.421875 239.183594 C 257.84375 240.125 257.304688 241.089844 256.808594 242.078125 C 256.3125 243.066406 255.855469 244.074219 255.445312 245.101562 C 255.03125 246.125 254.664062 247.167969 254.339844 248.226562 C 254.015625 249.28125 253.734375 250.351562 253.5 251.433594 C 253.265625 252.515625 253.078125 253.601562 252.933594 254.699219 C 252.792969 255.796875 252.695312 256.898438 252.648438 258.003906 C 252.597656 259.105469 252.59375 260.210938 252.636719 261.316406 C 252.679688 262.421875 252.769531 263.523438 252.90625 264.621094 C 261.890625 337.613281 303.242188 514.191406 493.417969 552.988281 C 495.296875 553.371094 497.191406 553.617188 499.105469 553.722656 C 501.019531 553.828125 502.929688 553.796875 504.835938 553.625 C 506.742188 553.453125 508.628906 553.140625 510.492188 552.691406 C 512.355469 552.246094 514.175781 551.664062 515.953125 550.949219 C 517.730469 550.238281 519.449219 549.398438 521.101562 548.433594 C 522.757812 547.46875 524.335938 546.390625 525.832031 545.195312 C 527.332031 544 528.734375 542.703125 530.042969 541.300781 C 531.347656 539.902344 532.546875 538.414062 533.640625 536.839844 L 548.433594 515.464844 C 549.167969 514.40625 549.847656 513.3125 550.472656 512.1875 C 551.097656 511.0625 551.667969 509.90625 552.179688 508.726562 C 552.691406 507.542969 553.144531 506.339844 553.539062 505.113281 C 553.933594 503.886719 554.269531 502.644531 554.539062 501.386719 C 554.8125 500.128906 555.023438 498.859375 555.167969 497.578125 C 555.316406 496.300781 555.402344 495.015625 555.421875 493.726562 C 555.441406 492.441406 555.402344 491.15625 555.296875 489.871094 C 555.191406 488.585938 555.023438 487.3125 554.792969 486.042969 C 554.5625 484.777344 554.269531 483.523438 553.917969 482.285156 C 553.5625 481.046875 553.148438 479.828125 552.675781 478.632812 C 552.203125 477.433594 551.671875 476.261719 551.085938 475.117188 C 550.496094 473.96875 549.851562 472.855469 549.15625 471.773438 C 548.457031 470.691406 547.707031 469.644531 546.90625 468.636719 C 546.105469 467.625 545.257812 466.660156 544.363281 465.734375 C 543.46875 464.808594 542.527344 463.929688 541.546875 463.09375 C 540.566406 462.261719 539.542969 461.480469 538.484375 460.746094 C 538.402344 460.6875 538.316406 460.628906 538.234375 460.574219 L 505.71875 438.433594 C 504.847656 437.839844 503.949219 437.28125 503.03125 436.761719 C 502.117188 436.238281 501.179688 435.753906 500.222656 435.308594 C 499.265625 434.859375 498.289062 434.453125 497.300781 434.085938 C 496.3125 433.714844 495.308594 433.386719 494.292969 433.101562 C 493.277344 432.8125 492.25 432.566406 491.214844 432.363281 C 490.179688 432.15625 489.136719 431.996094 488.085938 431.875 C 487.039062 431.753906 485.984375 431.675781 484.929688 431.636719 C 483.875 431.601562 482.820312 431.609375 481.765625 431.65625 C 480.710938 431.707031 479.660156 431.796875 478.609375 431.929688 C 477.5625 432.066406 476.523438 432.242188 475.488281 432.457031 C 474.457031 432.675781 473.433594 432.933594 472.421875 433.234375 C 471.410156 433.535156 470.410156 433.875 469.425781 434.253906 C 468.4375 434.632812 467.472656 435.054688 466.519531 435.511719 C 465.566406 435.96875 464.636719 436.464844 463.726562 437 C 462.8125 437.53125 461.925781 438.101562 461.058594 438.707031 C 460.195312 439.3125 459.355469 439.949219 458.539062 440.625 C 457.730469 441.292969 456.898438 441.929688 456.039062 442.53125 C 455.179688 443.132812 454.296875 443.703125 453.390625 444.234375 C 452.488281 444.765625 451.5625 445.261719 450.617188 445.71875 C 449.671875 446.175781 448.710938 446.597656 447.734375 446.976562 C 446.753906 447.355469 445.761719 447.699219 444.757812 448 C 443.75 448.300781 442.734375 448.5625 441.707031 448.78125 C 440.683594 449 439.648438 449.179688 438.605469 449.316406 C 437.566406 449.453125 436.523438 449.546875 435.472656 449.597656 C 434.425781 449.652344 433.375 449.664062 432.328125 449.632812 C 431.277344 449.601562 430.230469 449.527344 429.1875 449.410156 C 428.144531 449.296875 427.105469 449.140625 426.074219 448.941406 C 425.046875 448.742188 424.023438 448.503906 423.011719 448.222656 C 422 447.941406 421 447.621094 420.015625 447.261719 C 419.03125 446.902344 418.058594 446.503906 417.105469 446.0625 C 416.152344 445.625 415.21875 445.148438 414.300781 444.636719 C 413.386719 444.125 412.492188 443.574219 411.621094 442.988281 C 391.839844 429.664062 365.070312 407.566406 347.683594 376.929688 C 346.707031 375.222656 345.867188 373.449219 345.15625 371.617188 C 344.445312 369.78125 343.878906 367.90625 343.449219 365.988281 C 343.019531 364.070312 342.734375 362.128906 342.597656 360.167969 C 342.457031 358.207031 342.464844 356.246094 342.621094 354.285156 C 342.773438 352.324219 343.074219 350.386719 343.519531 348.472656 C 343.964844 346.554688 344.546875 344.683594 345.273438 342.855469 C 345.996094 341.027344 346.851562 339.265625 347.839844 337.5625 C 348.828125 335.863281 349.9375 334.246094 351.167969 332.714844 L 359.53125 322.3125 C 361.410156 319.980469 363 317.464844 364.300781 314.765625 C 365.601562 312.070312 366.585938 309.261719 367.246094 306.339844 C 367.90625 303.417969 368.226562 300.460938 368.210938 297.464844 C 368.199219 294.472656 367.84375 291.515625 367.152344 288.601562 Z M 367.152344 288.601562 "/></g></svg>