<svg xmlns="http://www.w3.org/2000/svg" xmlns:xlink="http://www.w3.org/1999/xlink" width="1000" zoomAndPan="magnify" viewBox="0 0 750 749.999995" height="1000" preserveAspectRatio="xMidYMid meet" version="1.2"><g id="b81f1dadc3"><rect x="0" width="750" y="0" height="749.999995" style="fill:#ffffff;fill-opacity:1;stroke:none;"/><rect x="0" width="750" y="0" height="749.999995" style="fill:#ffffff;fill-opacity:1;stroke:none;"/><path style=" stroke:none;fill-rule:evenodd;fill:#0b2545;fill-opacity:1;" d="M 300.421875 601.9375 L 300.421875 721.597656 C 300.421875 732.539062 290.054688 740.445312 279.476562 737.671875 C 118.828125 695.316406 0 548.769531 0 375 C 0 168.21875 168.21875 0 375 0 C 526.441406 0 662.199219 90.234375 720.839844 229.867188 L 720.84375 229.894531 C 725.417969 240.839844 717.382812 252.933594 705.523438 252.933594 L 560.867188 252.933594 C 555.839844 252.933594 551.074219 250.679688 547.929688 246.730469 C 506.234375 194.03125 442.644531 162.957031 375 162.957031 C 248.773438 162.957031 146.988281 269.660156 155.128906 397.644531 C 160.550781 482.40625 214.710938 555.054688 290.179688 586.625 C 296.363281 589.214844 300.421875 595.234375 300.421875 601.9375 "/><path style=" stroke:none;fill-rule:evenodd;fill:#0b2545;fill-opacity:1;" d="M 750.003906 375 C 750.003906 395.261719 748.351562 415.550781 745.132812 435.367188 C 731.074219 522.277344 686.359375 601.886719 619.214844 659.582031 C 551.339844 717.882812 464.609375 750 375 750 C 373.429688 750 371.832031 750 370.261719 749.976562 C 361.15625 749.871094 353.824219 742.460938 353.824219 733.351562 L 353.824219 620.105469 C 353.824219 610.785156 361.496094 603.347656 370.835938 603.535156 C 456.390625 605.15625 532.933594 557.382812 570.628906 484.816406 C 576.335938 473.796875 568.246094 460.628906 555.8125 460.628906 L 370.421875 460.628906 C 361.261719 460.628906 353.824219 453.191406 353.824219 444.003906 L 353.824219 322.566406 C 353.824219 313.375 361.257812 305.941406 370.421875 305.941406 L 729.742188 305.941406 C 738.195312 305.941406 745.289062 312.273438 746.257812 320.679688 L 747.621094 332.667969 C 749.191406 346.648438 750 360.917969 750.003906 375 "/></g></svg>