<svg xmlns="http://www.w3.org/2000/svg" xmlns:xlink="http://www.w3.org/1999/xlink" width="1000" zoomAndPan="magnify" viewBox="0 0 750 749.999995" height="1000" preserveAspectRatio="xMidYMid meet" version="1.2"><g id="1397bfe97b"><path style=" stroke:none;fill-rule:nonzero;fill:#ffffff;fill-opacity:1;" d="M 728.402344 374.882812 C 728.402344 570.132812 570.125 728.402344 374.871094 728.402344 C 179.621094 728.402344 21.335938 570.132812 21.335938 374.882812 C 21.335938 179.621094 179.621094 21.335938 374.871094 21.335938 C 570.125 21.335938 728.402344 179.621094 728.402344 374.882812 "/><path style=" stroke:none;fill-rule:nonzero;fill:#0b2545;fill-opacity:1;" d="M 374.871094 42.761719 C 191.75 42.761719 42.761719 191.75 42.761719 374.871094 C 42.761719 557.996094 191.75 706.972656 374.871094 706.972656 C 557.996094 706.972656 706.972656 557.996094 706.972656 374.871094 C 706.972656 191.75 557.996094 42.761719 374.871094 42.761719 Z M 374.871094 749.832031 C 168.113281 749.832031 -0.09375 581.632812 -0.09375 374.871094 C -0.09375 168.121094 168.113281 -0.09375 374.871094 -0.09375 C 581.625 -0.09375 749.832031 168.121094 749.832031 374.871094 C 749.832031 581.632812 581.625 749.832031 374.871094 749.832031 "/><path style=" stroke:none;fill-rule:nonzero;fill:#0b2545;fill-opacity:1;" d="M 374.871094 402.503906 L 603.914062 211.679688 C 602.695312 211.4375 601.570312 210.945312 600.273438 210.945312 L 149.472656 210.945312 C 148.230469 210.945312 147.085938 211.4375 145.863281 211.679688 L 374.871094 402.503906 "/><path style=" stroke:none;fill-rule:nonzero;fill:#0b2545;fill-opacity:1;" d="M 620.765625 231.433594 C 620.765625 229.277344 620.164062 227.292969 619.542969 225.332031 L 457.15625 360.644531 L 619.785156 523.289062 C 620.179688 521.648438 620.765625 520.066406 620.765625 518.308594 L 620.765625 231.433594 "/><path style=" stroke:none;fill-rule:nonzero;fill:#0b2545;fill-opacity:1;" d="M 130.234375 225.308594 C 129.597656 227.273438 128.980469 229.25 128.980469 231.433594 L 128.980469 518.308594 C 128.980469 520.085938 129.582031 521.675781 130 523.316406 L 292.648438 360.667969 L 130.234375 225.308594 "/><path style=" stroke:none;fill-rule:nonzero;fill:#0b2545;fill-opacity:1;" d="M 441.328125 373.828125 L 381.433594 423.714844 C 379.550781 425.320312 377.234375 426.101562 374.871094 426.101562 C 372.546875 426.101562 370.226562 425.320312 368.328125 423.714844 L 308.453125 373.851562 L 144.507812 537.78125 C 146.132812 538.214844 147.730469 538.800781 149.472656 538.800781 L 600.273438 538.800781 C 602.050781 538.800781 603.65625 538.214844 605.296875 537.78125 L 441.328125 373.828125 "/></g></svg>