<svg xmlns="http://www.w3.org/2000/svg" xmlns:xlink="http://www.w3.org/1999/xlink" width="1000" zoomAndPan="magnify" viewBox="0 0 750 749.999995" height="1000" preserveAspectRatio="xMidYMid meet" version="1.2"><defs><clipPath id="66b5a96588"><path d="M 46.363281 2 L 703.363281 2 L 703.363281 748 L 46.363281 748 Z M 46.363281 2 "/></clipPath></defs><g id="ffb260917f"><rect x="0" width="750" y="0" height="749.999995" style="fill:#ffffff;fill-opacity:1;stroke:none;"/><rect x="0" width="750" y="0" height="749.999995" style="fill:#ffffff;fill-opacity:1;stroke:none;"/><g clip-rule="nonzero" clip-path="url(#66b5a96588)"><path style=" stroke:none;fill-rule:nonzero;fill:#0b2545;fill-opacity:1;" d="M 106.03125 673.382812 L 46.175781 2.105469 L 703.820312 2.105469 L 643.917969 673.289062 L 374.578125 747.917969 Z M 106.03125 673.382812 "/></g><path style=" stroke:none;fill-rule:nonzero;fill:#0b2545;fill-opacity:1;" d="M 592.621094 630.542969 L 643.828125 56.992188 L 375 56.992188 L 375 690.886719 Z M 592.621094 630.542969 "/><path style=" stroke:none;fill-rule:nonzero;fill:#f5f5f5;fill-opacity:1;" d="M 374.71875 139.316406 L 168.542969 139.316406 L 190.753906 388.285156 L 375 388.285156 L 375 305.964844 L 266.058594 305.964844 L 258.53125 221.660156 L 375 221.660156 L 375 139.316406 Z M 375 519.507812 L 374.648438 519.597656 L 282.957031 494.847656 L 277.128906 429.191406 L 194.4375 429.191406 L 205.972656 558.453125 L 374.625 605.066406 L 375 604.949219 Z M 375 519.507812 "/><path style=" stroke:none;fill-rule:nonzero;fill:#f5f5f5;fill-opacity:1;" d="M 374.71875 388.285156 L 476.105469 388.285156 L 466.78125 495.035156 L 374.953125 519.808594 L 374.953125 605.464844 L 543.746094 558.6875 L 566.351562 305.917969 L 375 305.917969 Z M 578.984375 161.410156 L 580.941406 139.316406 L 374.671875 139.316406 L 374.671875 221.636719 L 573.53125 221.636719 L 575.164062 203.132812 Z M 578.984375 161.410156 "/></g></svg>