<svg xmlns="http://www.w3.org/2000/svg" xmlns:xlink="http://www.w3.org/1999/xlink" width="1000" zoomAndPan="magnify" viewBox="0 0 750 749.999995" height="1000" preserveAspectRatio="xMidYMid meet" version="1.2"><g id="bcfbd8d0a8"><path style=" stroke:none;fill-rule:nonzero;fill:#d4af37;fill-opacity:1;" d="M 174.847656 272.003906 L 230.320312 272.003906 C 231.019531 272.003906 231.710938 272.074219 232.394531 272.210938 C 233.078125 272.347656 233.746094 272.546875 234.390625 272.816406 C 235.035156 273.082031 235.648438 273.410156 236.230469 273.796875 C 236.808594 274.1875 237.347656 274.628906 237.839844 275.121094 C 238.335938 275.613281 238.777344 276.152344 239.164062 276.734375 C 239.550781 277.3125 239.878906 277.925781 240.148438 278.574219 C 240.414062 279.21875 240.617188 279.882812 240.753906 280.566406 C 240.890625 281.253906 240.957031 281.945312 240.957031 282.644531 L 240.957031 587.765625 C 240.957031 588.464844 240.890625 589.15625 240.753906 589.839844 C 240.617188 590.527344 240.414062 591.191406 240.148438 591.835938 C 239.878906 592.480469 239.550781 593.09375 239.164062 593.675781 C 238.777344 594.257812 238.335938 594.792969 237.839844 595.289062 C 237.347656 595.78125 236.808594 596.222656 236.230469 596.613281 C 235.648438 597 235.035156 597.328125 234.390625 597.59375 C 233.746094 597.863281 233.078125 598.0625 232.394531 598.199219 C 231.710938 598.335938 231.019531 598.402344 230.320312 598.402344 L 174.847656 598.402344 C 174.148438 598.402344 173.457031 598.335938 172.769531 598.199219 C 172.085938 598.0625 171.421875 597.863281 170.773438 597.59375 C 170.128906 597.328125 169.515625 597 168.933594 596.613281 C 168.355469 596.222656 167.816406 595.78125 167.324219 595.289062 C 166.828125 594.792969 166.386719 594.257812 166 593.675781 C 165.613281 593.09375 165.285156 592.480469 165.015625 591.835938 C 164.75 591.191406 164.546875 590.527344 164.410156 589.839844 C 164.277344 589.15625 164.207031 588.464844 164.207031 587.765625 L 164.207031 282.644531 C 164.207031 281.945312 164.277344 281.253906 164.410156 280.566406 C 164.546875 279.882812 164.75 279.21875 165.015625 278.574219 C 165.285156 277.925781 165.613281 277.3125 166 276.734375 C 166.386719 276.152344 166.828125 275.613281 167.324219 275.121094 C 167.816406 274.628906 168.355469 274.1875 168.933594 273.796875 C 169.515625 273.410156 170.128906 273.082031 170.773438 272.816406 C 171.421875 272.546875 172.085938 272.347656 172.769531 272.210938 C 173.457031 272.074219 174.148438 272.003906 174.847656 272.003906 Z M 174.847656 272.003906 "/><path style=" stroke:none;fill-rule:nonzero;fill:#d4af37;fill-opacity:1;" d="M 247.265625 196.730469 C 247.179688 170.570312 228.414062 151.597656 202.585938 151.597656 C 176.753906 151.597656 157.269531 171.074219 157.269531 196.910156 C 157.269531 208.929688 161.660156 220.113281 169.617188 228.394531 C 177.796875 236.902344 189.058594 241.589844 201.324219 241.589844 C 214.914062 241.589844 227.046875 236.804688 235.488281 228.054688 C 243.398438 219.871094 247.574219 208.824219 247.269531 196.910156 C 247.269531 196.851562 247.265625 196.808594 247.265625 196.730469 Z M 247.265625 196.730469 "/><path style=" stroke:none;fill-rule:nonzero;fill:#d4af37;fill-opacity:1;" d="M 551.121094 293.46875 C 523.5 268.761719 491.128906 265.070312 474.289062 265.070312 C 449.128906 265.070312 425.152344 271.792969 404.945312 284.515625 C 396.113281 290.078125 388.136719 296.671875 381.011719 304.296875 L 379.617188 281.957031 C 379.574219 281.289062 379.46875 280.628906 379.304688 279.976562 C 379.136719 279.328125 378.910156 278.699219 378.625 278.089844 C 378.339844 277.484375 377.996094 276.90625 377.601562 276.363281 C 377.207031 275.820312 376.765625 275.320312 376.277344 274.859375 C 375.785156 274.402344 375.257812 273.992188 374.691406 273.632812 C 374.121094 273.273438 373.527344 272.972656 372.902344 272.726562 C 372.277344 272.480469 371.636719 272.292969 370.976562 272.167969 C 370.316406 272.042969 369.648438 271.984375 368.980469 271.984375 L 319.835938 271.984375 C 319.101562 271.984375 318.378906 272.058594 317.664062 272.207031 C 316.945312 272.359375 316.25 272.578125 315.582031 272.871094 C 314.910156 273.164062 314.277344 273.523438 313.679688 273.949219 C 313.082031 274.371094 312.535156 274.851562 312.035156 275.386719 C 311.539062 275.925781 311.101562 276.507812 310.722656 277.132812 C 310.347656 277.761719 310.035156 278.421875 309.792969 279.109375 C 309.554688 279.800781 309.386719 280.511719 309.289062 281.238281 C 309.195312 281.960938 309.171875 282.691406 309.230469 283.421875 C 310.972656 306.707031 311.71875 331.171875 311.71875 365.207031 L 311.71875 587.765625 C 311.71875 588.464844 311.785156 589.15625 311.921875 589.839844 C 312.058594 590.527344 312.261719 591.191406 312.527344 591.835938 C 312.796875 592.480469 313.121094 593.09375 313.511719 593.675781 C 313.898438 594.257812 314.339844 594.792969 314.832031 595.289062 C 315.328125 595.78125 315.867188 596.222656 316.445312 596.613281 C 317.027344 597 317.640625 597.328125 318.285156 597.59375 C 318.929688 597.863281 319.597656 598.0625 320.28125 598.199219 C 320.964844 598.335938 321.65625 598.402344 322.355469 598.402344 L 377.835938 598.402344 C 378.535156 598.402344 379.226562 598.335938 379.910156 598.199219 C 380.59375 598.0625 381.261719 597.863281 381.90625 597.59375 C 382.550781 597.328125 383.164062 597 383.746094 596.613281 C 384.328125 596.222656 384.863281 595.78125 385.359375 595.289062 C 385.851562 594.792969 386.292969 594.257812 386.679688 593.675781 C 387.070312 593.09375 387.394531 592.480469 387.664062 591.835938 C 387.929688 591.191406 388.132812 590.527344 388.269531 589.839844 C 388.40625 589.15625 388.472656 588.464844 388.472656 587.765625 L 388.472656 404.3125 C 388.472656 395.691406 389.617188 387.597656 391.617188 382.101562 C 391.675781 381.929688 391.734375 381.753906 391.789062 381.570312 C 399.289062 357.101562 422.054688 332.355469 456.003906 332.355469 C 477.019531 332.355469 492.105469 339.542969 502.128906 354.324219 C 511.171875 367.6875 515.957031 387.589844 515.957031 411.867188 L 515.957031 587.765625 C 515.957031 588.464844 516.027344 589.15625 516.160156 589.839844 C 516.296875 590.527344 516.5 591.191406 516.765625 591.835938 C 517.035156 592.480469 517.363281 593.09375 517.75 593.675781 C 518.136719 594.257812 518.578125 594.792969 519.074219 595.289062 C 519.566406 595.78125 520.105469 596.222656 520.683594 596.613281 C 521.265625 597 521.878906 597.328125 522.523438 597.59375 C 523.171875 597.863281 523.835938 598.0625 524.519531 598.199219 C 525.207031 598.335938 525.898438 598.402344 526.597656 598.402344 L 582.074219 598.402344 C 582.773438 598.402344 583.464844 598.335938 584.148438 598.199219 C 584.835938 598.0625 585.5 597.863281 586.144531 597.59375 C 586.789062 597.328125 587.402344 597 587.984375 596.613281 C 588.566406 596.222656 589.101562 595.78125 589.597656 595.289062 C 590.089844 594.792969 590.53125 594.257812 590.917969 593.675781 C 591.308594 593.09375 591.636719 592.480469 591.902344 591.835938 C 592.171875 591.191406 592.371094 590.527344 592.507812 589.839844 C 592.644531 589.15625 592.710938 588.464844 592.710938 587.765625 L 592.710938 405.574219 C 592.710938 379.617188 588.789062 356.613281 581.054688 337.195312 C 574.105469 319.734375 564.03125 305.019531 551.121094 293.46875 Z M 551.121094 293.46875 "/><path style=" stroke:none;fill-rule:nonzero;fill:#d4af37;fill-opacity:1;" d="M 652.363281 0 L 97.636719 0 C 43.796875 0 0 43.804688 0 97.636719 L 0 652.363281 C 0 706.195312 43.796875 750 97.636719 750 L 652.363281 750 C 706.195312 750 750 706.195312 750 652.363281 L 750 97.636719 C 750 43.804688 706.195312 0 652.363281 0 Z M 681.441406 102.367188 L 681.441406 647.632812 C 681.441406 648.738281 681.382812 649.84375 681.273438 650.945312 C 681.164062 652.046875 681.003906 653.140625 680.785156 654.226562 C 680.570312 655.3125 680.300781 656.382812 679.976562 657.441406 C 679.65625 658.5 679.28125 659.542969 678.859375 660.566406 C 678.433594 661.585938 677.960938 662.585938 677.4375 663.5625 C 676.917969 664.539062 676.347656 665.488281 675.730469 666.40625 C 675.117188 667.328125 674.457031 668.214844 673.753906 669.070312 C 673.054688 669.925781 672.3125 670.746094 671.527344 671.527344 C 670.746094 672.3125 669.925781 673.054688 669.070312 673.753906 C 668.214844 674.457031 667.328125 675.117188 666.40625 675.730469 C 665.488281 676.347656 664.539062 676.917969 663.5625 677.4375 C 662.585938 677.960938 661.585938 678.433594 660.566406 678.859375 C 659.542969 679.28125 658.5 679.65625 657.441406 679.976562 C 656.382812 680.300781 655.3125 680.570312 654.226562 680.785156 C 653.140625 681.003906 652.046875 681.164062 650.945312 681.273438 C 649.84375 681.382812 648.738281 681.441406 647.632812 681.441406 L 102.367188 681.441406 C 101.261719 681.441406 100.15625 681.382812 99.054688 681.273438 C 97.953125 681.164062 96.859375 681.003906 95.773438 680.785156 C 94.6875 680.570312 93.617188 680.300781 92.558594 679.976562 C 91.496094 679.65625 90.457031 679.28125 89.433594 678.859375 C 88.414062 678.433594 87.414062 677.960938 86.4375 677.4375 C 85.460938 676.917969 84.511719 676.347656 83.59375 675.730469 C 82.671875 675.117188 81.785156 674.457031 80.929688 673.753906 C 80.074219 673.054688 79.253906 672.3125 78.472656 671.527344 C 77.6875 670.746094 76.945312 669.925781 76.242188 669.070312 C 75.542969 668.214844 74.882812 667.328125 74.269531 666.40625 C 73.652344 665.488281 73.082031 664.539062 72.5625 663.5625 C 72.039062 662.585938 71.566406 661.585938 71.140625 660.566406 C 70.71875 659.542969 70.34375 658.5 70.023438 657.441406 C 69.699219 656.382812 69.429688 655.3125 69.214844 654.226562 C 68.996094 653.140625 68.835938 652.046875 68.726562 650.945312 C 68.613281 649.84375 68.558594 648.738281 68.558594 647.632812 L 68.558594 102.367188 C 68.558594 101.261719 68.613281 100.15625 68.726562 99.054688 C 68.835938 97.953125 68.996094 96.859375 69.214844 95.773438 C 69.429688 94.6875 69.699219 93.617188 70.023438 92.558594 C 70.34375 91.496094 70.71875 90.457031 71.140625 89.433594 C 71.566406 88.414062 72.039062 87.414062 72.5625 86.4375 C 73.082031 85.460938 73.652344 84.511719 74.269531 83.59375 C 74.882812 82.671875 75.542969 81.785156 76.242188 80.929688 C 76.945312 80.074219 77.6875 79.253906 78.472656 78.472656 C 79.253906 77.6875 80.074219 76.945312 80.929688 76.242188 C 81.785156 75.542969 82.671875 74.882812 83.59375 74.269531 C 84.511719 73.652344 85.460938 73.082031 86.4375 72.5625 C 87.414062 72.039062 88.414062 71.566406 89.433594 71.140625 C 90.457031 70.71875 91.496094 70.34375 92.558594 70.023438 C 93.617188 69.699219 94.6875 69.429688 95.773438 69.214844 C 96.859375 68.996094 97.953125 68.835938 99.054688 68.726562 C 100.15625 68.613281 101.261719 68.558594 102.367188 68.558594 L 647.632812 68.558594 C 648.738281 68.558594 649.84375 68.613281 650.945312 68.726562 C 652.046875 68.835938 653.140625 68.996094 654.226562 69.214844 C 655.3125 69.429688 656.382812 69.699219 657.441406 70.023438 C 658.5 70.34375 659.542969 70.71875 660.566406 71.140625 C 661.585938 71.566406 662.585938 72.039062 663.5625 72.5625 C 664.539062 73.082031 665.488281 73.652344 666.40625 74.269531 C 667.328125 74.882812 668.214844 75.542969 669.070312 76.242188 C 669.925781 76.945312 670.746094 77.6875 671.527344 78.472656 C 672.3125 79.253906 673.054688 80.074219 673.753906 80.929688 C 674.457031 81.785156 675.117188 82.671875 675.730469 83.59375 C 676.347656 84.511719 676.917969 85.460938 677.4375 86.4375 C 677.960938 87.414062 678.433594 88.414062 678.859375 89.433594 C 679.28125 90.457031 679.65625 91.496094 679.976562 92.558594 C 680.300781 93.617188 680.570312 94.6875 680.785156 95.773438 C 681.003906 96.859375 681.164062 97.953125 681.273438 99.054688 C 681.382812 100.15625 681.441406 101.261719 681.441406 102.367188 Z M 681.441406 102.367188 "/></g></svg>