<svg xmlns="http://www.w3.org/2000/svg" xmlns:xlink="http://www.w3.org/1999/xlink" width="1000" zoomAndPan="magnify" viewBox="0 0 750 749.999995" height="1000" preserveAspectRatio="xMidYMid meet" version="1.2"><defs><clipPath id="2a6a205e3d"><path d="M 12 1 L 739.976562 1 L 739.976562 749 L 12 749 Z M 12 1 "/></clipPath></defs><g id="db1f8bfc61"><rect x="0" width="750" y="0" height="749.999995" style="fill:#ffffff;fill-opacity:1;stroke:none;"/><rect x="0" width="750" y="0" height="749.999995" style="fill:#ffffff;fill-opacity:1;stroke:none;"/><g clip-rule="nonzero" clip-path="url(#2a6a205e3d)"><path style=" stroke:none;fill-rule:nonzero;fill:#0b2545;fill-opacity:1;" d="M 376.007812 748.863281 C 371.640625 748.886719 367.382812 748.210938 363.234375 746.84375 L 120.730469 666.007812 C 118.949219 665.414062 117.21875 664.699219 115.539062 663.867188 C 113.859375 663.035156 112.246094 662.085938 110.695312 661.027344 C 109.148438 659.96875 107.679688 658.808594 106.292969 657.546875 C 104.90625 656.285156 103.613281 654.929688 102.414062 653.488281 C 101.214844 652.042969 100.125 650.527344 99.136719 648.929688 C 98.148438 647.335938 97.277344 645.679688 96.519531 643.964844 C 95.765625 642.246094 95.128906 640.488281 94.621094 638.683594 C 94.109375 636.878906 93.722656 635.046875 93.46875 633.1875 L 12.632812 47.132812 C 12.433594 45.703125 12.3125 44.273438 12.265625 42.832031 C 12.21875 41.390625 12.25 39.953125 12.359375 38.515625 C 12.46875 37.082031 12.652344 35.652344 12.914062 34.238281 C 13.175781 32.820312 13.511719 31.421875 13.921875 30.039062 C 14.332031 28.660156 14.8125 27.304688 15.367188 25.972656 C 15.925781 24.644531 16.546875 23.347656 17.242188 22.085938 C 17.9375 20.824219 18.695312 19.601562 19.519531 18.421875 C 20.34375 17.238281 21.230469 16.105469 22.175781 15.019531 C 23.121094 13.933594 24.121094 12.898438 25.179688 11.917969 C 26.234375 10.941406 27.339844 10.019531 28.496094 9.15625 C 29.652344 8.296875 30.847656 7.5 32.089844 6.765625 C 33.328125 6.03125 34.605469 5.367188 35.914062 4.769531 C 37.226562 4.171875 38.566406 3.648438 39.933594 3.195312 C 41.300781 2.738281 42.6875 2.359375 44.09375 2.054688 C 45.503906 1.75 46.921875 1.519531 48.355469 1.367188 C 49.789062 1.214844 51.226562 1.136719 52.664062 1.136719 L 699.347656 1.136719 C 700.789062 1.136719 702.222656 1.214844 703.652344 1.367188 C 705.085938 1.519531 706.503906 1.75 707.910156 2.054688 C 709.316406 2.359375 710.703125 2.738281 712.070312 3.191406 C 713.433594 3.644531 714.773438 4.171875 716.082031 4.765625 C 717.394531 5.363281 718.667969 6.027344 719.90625 6.757812 C 721.144531 7.492188 722.34375 8.285156 723.496094 9.148438 C 724.648438 10.007812 725.753906 10.925781 726.808594 11.902344 C 727.867188 12.882812 728.867188 13.914062 729.8125 15 C 730.757812 16.082031 731.644531 17.214844 732.46875 18.394531 C 733.292969 19.574219 734.050781 20.796875 734.746094 22.054688 C 735.441406 23.316406 736.066406 24.609375 736.621094 25.9375 C 737.179688 27.265625 737.660156 28.617188 738.074219 29.996094 C 738.484375 31.378906 738.820312 32.773438 739.082031 34.1875 C 739.347656 35.605469 739.53125 37.03125 739.640625 38.464844 C 739.753906 39.898438 739.785156 41.335938 739.742188 42.773438 C 739.699219 44.214844 739.578125 45.644531 739.382812 47.070312 L 658.546875 633.128906 C 658.292969 634.988281 657.910156 636.824219 657.402344 638.628906 C 656.890625 640.4375 656.261719 642.203125 655.503906 643.921875 C 654.75 645.640625 653.878906 647.300781 652.890625 648.898438 C 651.90625 650.496094 650.8125 652.015625 649.613281 653.460938 C 648.414062 654.910156 647.121094 656.265625 645.734375 657.53125 C 644.347656 658.792969 642.878906 659.957031 641.328125 661.019531 C 639.777344 662.078125 638.164062 663.027344 636.480469 663.863281 C 634.796875 664.699219 633.066406 665.414062 631.285156 666.007812 L 388.777344 746.84375 C 384.632812 748.210938 380.375 748.886719 376.007812 748.863281 Z M 170.121094 597.296875 L 376.007812 665.84375 L 581.894531 597.136719 L 652.96875 81.972656 L 99.144531 81.972656 Z M 170.121094 597.296875 "/></g><path style=" stroke:none;fill-rule:nonzero;fill:#0b2545;fill-opacity:1;" d="M 315.378906 566.984375 C 309.015625 566.988281 302.988281 565.566406 297.292969 562.71875 L 216.457031 522.300781 C 215.273438 521.710938 214.121094 521.0625 213 520.355469 C 211.878906 519.652344 210.792969 518.894531 209.746094 518.082031 C 208.699219 517.269531 207.695312 516.410156 206.734375 515.5 C 205.769531 514.589844 204.855469 513.632812 203.988281 512.632812 C 203.117188 511.632812 202.300781 510.589844 201.535156 509.511719 C 200.769531 508.429688 200.058594 507.3125 199.402344 506.164062 C 198.746094 505.011719 198.148438 503.832031 197.609375 502.625 C 197.066406 501.414062 196.585938 500.179688 196.167969 498.925781 C 195.75 497.667969 195.394531 496.394531 195.097656 495.101562 C 194.804688 493.808594 194.574219 492.507812 194.410156 491.191406 C 194.242188 489.878906 194.144531 488.558594 194.105469 487.234375 C 194.070312 485.910156 194.101562 484.589844 194.195312 483.269531 C 194.289062 481.945312 194.445312 480.632812 194.667969 479.328125 C 194.890625 478.019531 195.179688 476.730469 195.527344 475.453125 C 195.878906 474.175781 196.289062 472.917969 196.765625 471.679688 C 197.238281 470.441406 197.769531 469.230469 198.363281 468.046875 C 198.957031 466.863281 199.605469 465.710938 200.3125 464.589844 C 201.019531 463.46875 201.777344 462.386719 202.589844 461.339844 C 203.402344 460.292969 204.265625 459.289062 205.175781 458.328125 C 206.085938 457.367188 207.042969 456.453125 208.042969 455.585938 C 209.042969 454.714844 210.085938 453.898438 211.167969 453.136719 C 212.25 452.371094 213.363281 451.660156 214.515625 451.003906 C 215.667969 450.347656 216.847656 449.75 218.058594 449.210938 C 219.265625 448.671875 220.5 448.195312 221.757812 447.777344 C 223.015625 447.359375 224.289062 447.003906 225.582031 446.710938 C 226.871094 446.417969 228.175781 446.1875 229.488281 446.023438 C 230.804688 445.859375 232.125 445.757812 233.449219 445.722656 C 234.773438 445.6875 236.09375 445.71875 237.414062 445.8125 C 238.738281 445.90625 240.050781 446.066406 241.355469 446.292969 C 242.660156 446.515625 243.953125 446.804688 245.230469 447.15625 C 246.507812 447.503906 247.765625 447.917969 249 448.394531 C 250.238281 448.867188 251.449219 449.402344 252.632812 449.996094 L 274.964844 461.171875 L 274.964844 243.640625 L 194.128906 243.640625 C 192.804688 243.640625 191.484375 243.578125 190.167969 243.449219 C 188.847656 243.316406 187.539062 243.125 186.242188 242.867188 C 184.945312 242.609375 183.660156 242.285156 182.394531 241.902344 C 181.128906 241.519531 179.882812 241.074219 178.660156 240.566406 C 177.4375 240.058594 176.242188 239.492188 175.074219 238.871094 C 173.90625 238.246094 172.773438 237.566406 171.671875 236.832031 C 170.570312 236.09375 169.511719 235.308594 168.488281 234.46875 C 167.464844 233.628906 166.484375 232.742188 165.546875 231.804688 C 164.613281 230.867188 163.722656 229.890625 162.882812 228.867188 C 162.042969 227.84375 161.257812 226.78125 160.523438 225.679688 C 159.785156 224.578125 159.105469 223.445312 158.484375 222.277344 C 157.859375 221.109375 157.292969 219.914062 156.785156 218.691406 C 156.28125 217.46875 155.835938 216.222656 155.449219 214.957031 C 155.066406 213.691406 154.746094 212.410156 154.488281 211.109375 C 154.226562 209.8125 154.035156 208.503906 153.90625 207.1875 C 153.773438 205.871094 153.710938 204.546875 153.710938 203.226562 C 153.710938 201.902344 153.773438 200.582031 153.90625 199.261719 C 154.035156 197.945312 154.226562 196.636719 154.488281 195.339844 C 154.746094 194.042969 155.066406 192.757812 155.449219 191.492188 C 155.835938 190.226562 156.28125 188.980469 156.785156 187.757812 C 157.292969 186.535156 157.859375 185.339844 158.484375 184.171875 C 159.105469 183.003906 159.785156 181.871094 160.523438 180.769531 C 161.257812 179.667969 162.042969 178.605469 162.882812 177.585938 C 163.722656 176.5625 164.613281 175.582031 165.546875 174.644531 C 166.484375 173.710938 167.464844 172.820312 168.488281 171.980469 C 169.511719 171.140625 170.570312 170.355469 171.671875 169.617188 C 172.773438 168.882812 173.90625 168.203125 175.074219 167.578125 C 176.242188 166.957031 177.4375 166.390625 178.660156 165.882812 C 179.882812 165.378906 181.128906 164.933594 182.394531 164.546875 C 183.660156 164.164062 184.945312 163.84375 186.242188 163.582031 C 187.539062 163.324219 188.847656 163.132812 190.167969 163 C 191.484375 162.871094 192.804688 162.808594 194.128906 162.808594 L 315.378906 162.808594 C 316.703125 162.808594 318.023438 162.871094 319.34375 163 C 320.660156 163.132812 321.96875 163.324219 323.265625 163.582031 C 324.5625 163.84375 325.847656 164.164062 327.113281 164.546875 C 328.378906 164.933594 329.625 165.378906 330.847656 165.882812 C 332.070312 166.390625 333.265625 166.957031 334.433594 167.578125 C 335.601562 168.203125 336.734375 168.882812 337.835938 169.617188 C 338.9375 170.355469 340 171.140625 341.019531 171.980469 C 342.042969 172.820312 343.023438 173.710938 343.960938 174.644531 C 344.894531 175.582031 345.785156 176.5625 346.625 177.585938 C 347.464844 178.605469 348.25 179.667969 348.988281 180.769531 C 349.722656 181.871094 350.402344 183.003906 351.027344 184.171875 C 351.648438 185.339844 352.214844 186.535156 352.722656 187.757812 C 353.226562 188.980469 353.671875 190.226562 354.058594 191.492188 C 354.441406 192.757812 354.761719 194.042969 355.023438 195.339844 C 355.28125 196.636719 355.472656 197.945312 355.605469 199.261719 C 355.734375 200.582031 355.796875 201.902344 355.796875 203.226562 L 355.796875 526.566406 C 355.796875 527.890625 355.734375 529.210938 355.605469 530.527344 C 355.472656 531.84375 355.28125 533.152344 355.023438 534.453125 C 354.761719 535.75 354.441406 537.03125 354.058594 538.300781 C 353.671875 539.566406 353.226562 540.808594 352.722656 542.035156 C 352.214844 543.257812 351.648438 544.453125 351.027344 545.617188 C 350.402344 546.785156 349.722656 547.921875 348.988281 549.019531 C 348.25 550.121094 347.464844 551.183594 346.625 552.207031 C 345.785156 553.230469 344.894531 554.210938 343.960938 555.144531 C 343.023438 556.082031 342.042969 556.96875 341.019531 557.808594 C 340 558.648438 338.9375 559.4375 337.835938 560.171875 C 336.734375 560.90625 335.601562 561.585938 334.433594 562.210938 C 333.265625 562.835938 332.070312 563.402344 330.847656 563.90625 C 329.625 564.414062 328.378906 564.859375 327.113281 565.242188 C 325.847656 565.628906 324.5625 565.949219 323.265625 566.207031 C 321.96875 566.464844 320.660156 566.660156 319.34375 566.789062 C 318.023438 566.917969 316.703125 566.984375 315.378906 566.984375 Z M 315.378906 566.984375 "/><path style=" stroke:none;fill-rule:nonzero;fill:#0b2545;fill-opacity:1;" d="M 436.632812 566.984375 C 435.414062 566.984375 434.195312 566.925781 432.984375 566.816406 C 431.769531 566.703125 430.5625 566.535156 429.363281 566.316406 C 428.160156 566.09375 426.976562 565.820312 425.800781 565.492188 C 424.625 565.164062 423.46875 564.785156 422.328125 564.351562 C 421.1875 563.917969 420.070312 563.433594 418.972656 562.898438 C 417.875 562.367188 416.808594 561.78125 415.761719 561.152344 C 414.71875 560.519531 413.707031 559.84375 412.722656 559.121094 C 411.742188 558.398438 410.792969 557.632812 409.882812 556.824219 C 408.96875 556.015625 408.09375 555.167969 407.257812 554.277344 C 406.421875 553.390625 405.625 552.46875 404.875 551.507812 C 404.121094 550.546875 403.414062 549.554688 402.75 548.53125 C 402.085938 547.507812 401.472656 546.457031 400.90625 545.378906 C 400.335938 544.296875 399.820312 543.195312 399.351562 542.066406 C 398.882812 540.941406 398.46875 539.796875 398.105469 538.632812 C 397.738281 537.46875 397.429688 536.289062 397.171875 535.097656 C 396.914062 533.90625 396.710938 532.703125 396.5625 531.496094 C 396.414062 530.285156 396.320312 529.070312 396.28125 527.851562 C 396.242188 526.628906 396.257812 525.414062 396.332031 524.195312 C 396.402344 522.976562 396.527344 521.765625 396.710938 520.558594 C 396.890625 519.351562 397.125 518.15625 397.414062 516.972656 C 397.703125 515.789062 398.046875 514.617188 398.441406 513.464844 C 398.839844 512.3125 399.285156 511.179688 399.78125 510.066406 C 400.28125 508.953125 400.828125 507.863281 401.425781 506.796875 C 402.019531 505.734375 402.664062 504.699219 403.355469 503.695312 C 404.042969 502.6875 404.777344 501.714844 405.558594 500.777344 C 406.335938 499.839844 407.152344 498.9375 408.015625 498.070312 C 408.875 497.207031 409.769531 496.382812 410.707031 495.597656 C 411.640625 494.816406 412.609375 494.074219 413.609375 493.378906 C 414.609375 492.683594 415.640625 492.03125 416.703125 491.429688 C 417.761719 490.828125 418.847656 490.273438 419.957031 489.769531 C 421.070312 489.265625 422.199219 488.8125 423.351562 488.410156 C 424.503906 488.007812 425.667969 487.65625 426.851562 487.359375 L 481.417969 473.742188 L 491.054688 405.3125 L 456.84375 405.3125 C 454.855469 405.3125 452.875 405.214844 450.898438 405.019531 C 448.925781 404.828125 446.960938 404.535156 445.015625 404.148438 C 443.066406 403.761719 441.144531 403.277344 439.242188 402.703125 C 437.34375 402.125 435.476562 401.457031 433.640625 400.699219 C 431.808594 399.9375 430.015625 399.089844 428.261719 398.15625 C 426.511719 397.21875 424.8125 396.199219 423.160156 395.097656 C 421.507812 393.992188 419.917969 392.8125 418.382812 391.550781 C 416.847656 390.292969 415.378906 388.960938 413.972656 387.554688 C 412.570312 386.152344 411.238281 384.683594 409.976562 383.148438 C 408.71875 381.613281 407.535156 380.019531 406.433594 378.367188 C 405.332031 376.71875 404.3125 375.015625 403.375 373.265625 C 402.4375 371.515625 401.589844 369.722656 400.832031 367.886719 C 400.070312 366.054688 399.402344 364.1875 398.828125 362.285156 C 398.25 360.386719 397.769531 358.460938 397.382812 356.515625 C 396.992188 354.566406 396.703125 352.605469 396.507812 350.628906 C 396.3125 348.652344 396.214844 346.671875 396.214844 344.6875 L 396.214844 223.433594 C 396.214844 221.449219 396.3125 219.46875 396.507812 217.492188 C 396.703125 215.515625 396.992188 213.554688 397.382812 211.605469 C 397.769531 209.660156 398.25 207.734375 398.828125 205.835938 C 399.402344 203.933594 400.070312 202.066406 400.832031 200.234375 C 401.589844 198.398438 402.4375 196.605469 403.375 194.855469 C 404.3125 193.101562 405.332031 191.402344 406.433594 189.75 C 407.535156 188.101562 408.71875 186.507812 409.976562 184.972656 C 411.238281 183.4375 412.570312 181.96875 413.972656 180.5625 C 415.378906 179.160156 416.847656 177.828125 418.382812 176.570312 C 419.917969 175.308594 421.507812 174.128906 423.160156 173.023438 C 424.8125 171.921875 426.511719 170.902344 428.261719 169.964844 C 430.015625 169.03125 431.808594 168.183594 433.640625 167.421875 C 435.476562 166.664062 437.34375 165.992188 439.242188 165.417969 C 441.144531 164.839844 443.066406 164.359375 445.015625 163.972656 C 446.960938 163.585938 448.925781 163.292969 450.898438 163.097656 C 452.875 162.90625 454.855469 162.808594 456.84375 162.808594 L 557.886719 162.808594 C 559.210938 162.808594 560.53125 162.871094 561.847656 163 C 563.164062 163.132812 564.472656 163.324219 565.773438 163.582031 C 567.070312 163.84375 568.351562 164.164062 569.621094 164.546875 C 570.886719 164.933594 572.132812 165.378906 573.355469 165.882812 C 574.578125 166.390625 575.773438 166.957031 576.941406 167.578125 C 578.105469 168.203125 579.242188 168.882812 580.339844 169.617188 C 581.441406 170.355469 582.503906 171.140625 583.527344 171.980469 C 584.550781 172.820312 585.53125 173.710938 586.464844 174.644531 C 587.402344 175.582031 588.289062 176.5625 589.128906 177.585938 C 589.96875 178.605469 590.757812 179.667969 591.492188 180.769531 C 592.226562 181.871094 592.90625 183.003906 593.53125 184.171875 C 594.15625 185.339844 594.722656 186.535156 595.226562 187.757812 C 595.734375 188.980469 596.179688 190.226562 596.5625 191.492188 C 596.949219 192.757812 597.269531 194.042969 597.527344 195.339844 C 597.785156 196.636719 597.980469 197.945312 598.109375 199.261719 C 598.238281 200.582031 598.304688 201.902344 598.304688 203.226562 C 598.304688 204.546875 598.238281 205.871094 598.109375 207.1875 C 597.980469 208.503906 597.785156 209.8125 597.527344 211.109375 C 597.269531 212.410156 596.949219 213.691406 596.5625 214.957031 C 596.179688 216.222656 595.734375 217.46875 595.226562 218.691406 C 594.722656 219.914062 594.15625 221.109375 593.53125 222.277344 C 592.90625 223.445312 592.226562 224.578125 591.492188 225.679688 C 590.757812 226.78125 589.96875 227.84375 589.128906 228.867188 C 588.289062 229.890625 587.402344 230.867188 586.464844 231.804688 C 585.53125 232.742188 584.550781 233.628906 583.527344 234.46875 C 582.503906 235.308594 581.441406 236.09375 580.339844 236.832031 C 579.242188 237.566406 578.105469 238.246094 576.941406 238.871094 C 575.773438 239.492188 574.578125 240.058594 573.355469 240.566406 C 572.132812 241.074219 570.886719 241.519531 569.621094 241.902344 C 568.351562 242.285156 567.070312 242.609375 565.773438 242.867188 C 564.472656 243.125 563.164062 243.316406 561.847656 243.449219 C 560.53125 243.578125 559.210938 243.640625 557.886719 243.640625 L 477.050781 243.640625 L 477.050781 324.476562 L 514.355469 324.476562 C 516.34375 324.476562 518.324219 324.574219 520.300781 324.769531 C 522.273438 324.964844 524.238281 325.253906 526.183594 325.644531 C 528.132812 326.03125 530.054688 326.511719 531.957031 327.089844 C 533.855469 327.664062 535.722656 328.332031 537.558594 329.09375 C 539.390625 329.851562 541.183594 330.699219 542.9375 331.636719 C 544.6875 332.574219 546.386719 333.59375 548.039062 334.695312 C 549.691406 335.796875 551.28125 336.980469 552.816406 338.238281 C 554.351562 339.5 555.820312 340.832031 557.226562 342.234375 C 558.628906 343.640625 559.960938 345.109375 561.222656 346.644531 C 562.480469 348.179688 563.664062 349.769531 564.765625 351.421875 C 565.867188 353.074219 566.886719 354.773438 567.824219 356.523438 C 568.761719 358.277344 569.609375 360.070312 570.367188 361.902344 C 571.128906 363.738281 571.796875 365.605469 572.371094 367.503906 C 572.949219 369.40625 573.429688 371.328125 573.820312 373.277344 C 574.207031 375.222656 574.496094 377.1875 574.691406 379.160156 C 574.886719 381.136719 574.984375 383.117188 574.984375 385.105469 C 574.980469 388.03125 574.765625 390.941406 574.335938 393.835938 L 557.484375 512.054688 C 557.199219 514.035156 556.773438 515.980469 556.203125 517.894531 C 555.632812 519.808594 554.925781 521.671875 554.078125 523.480469 C 553.230469 525.292969 552.253906 527.027344 551.148438 528.695312 C 550.046875 530.359375 548.824219 531.933594 547.488281 533.417969 C 546.148438 534.902344 544.707031 536.277344 543.167969 537.546875 C 541.625 538.820312 539.996094 539.96875 538.285156 540.996094 C 536.570312 542.027344 534.792969 542.921875 532.945312 543.6875 C 531.101562 544.453125 529.207031 545.078125 527.269531 545.5625 L 446.433594 565.769531 C 443.21875 566.578125 439.949219 566.984375 436.632812 566.984375 Z M 494.371094 382.234375 Z M 494.371094 382.234375 "/></g></svg>