<svg xmlns="http://www.w3.org/2000/svg" xmlns:xlink="http://www.w3.org/1999/xlink" width="1000" zoomAndPan="magnify" viewBox="0 0 750 749.999995" height="1000" preserveAspectRatio="xMidYMid meet" version="1.2"><g id="4b2d94fafe"><path style=" stroke:none;fill-rule:nonzero;fill:#d4af37;fill-opacity:1;" d="M 375 0 C 167.894531 0 0 167.894531 0 375 C 0 582.105469 167.894531 750 375 750 C 582.105469 750 750 582.105469 750 375 C 750 167.894531 582.105469 0 375 0 Z M 375 721.597656 C 183.582031 721.597656 28.402344 566.417969 28.402344 375 C 28.402344 183.582031 183.582031 28.402344 375 28.402344 C 566.417969 28.402344 721.597656 183.582031 721.597656 375 C 721.597656 566.417969 566.417969 721.597656 375 721.597656 Z M 375 721.597656 "/><path style=" stroke:none;fill-rule:nonzero;fill:#d4af37;fill-opacity:1;" d="M 330.988281 558.8125 C 321.582031 559.714844 314.070312 560.75 306.523438 561.109375 C 263.738281 563.132812 232.058594 546.261719 212.847656 506.929688 C 206.730469 494.402344 198.898438 482.578125 190.742188 471.230469 C 185.84375 464.414062 178.980469 458.9375 172.640625 453.261719 L 172.5625 453.191406 C 168.644531 449.742188 170.375 443.289062 175.523438 442.425781 C 181.566406 441.410156 187.203125 442.503906 192.695312 443.898438 C 209.902344 448.277344 220.945312 460.476562 229.742188 475.0625 C 249.640625 508.050781 283.910156 521.8125 320.960938 511.984375 C 327.253906 510.316406 330.027344 507.605469 331.394531 500.746094 C 332.992188 492.746094 335.164062 484.855469 337.496094 476.816406 C 337.667969 476.226562 337.808594 475.628906 337.917969 475.023438 C 338.03125 474.417969 338.109375 473.808594 338.160156 473.195312 C 338.207031 472.582031 338.226562 471.96875 338.210938 471.355469 C 338.199219 470.738281 338.15625 470.128906 338.078125 469.515625 C 338.003906 468.90625 337.898438 468.300781 337.761719 467.703125 C 337.625 467.101562 337.457031 466.511719 337.261719 465.929688 C 337.0625 465.347656 336.835938 464.777344 336.582031 464.214844 C 336.328125 463.65625 336.046875 463.109375 335.734375 462.578125 C 335.425781 462.046875 335.089844 461.535156 334.726562 461.039062 C 334.363281 460.539062 333.980469 460.0625 333.566406 459.605469 C 333.15625 459.148438 332.726562 458.710938 332.269531 458.296875 C 331.816406 457.882812 331.339844 457.492188 330.847656 457.128906 C 330.351562 456.761719 329.839844 456.421875 329.3125 456.109375 C 328.78125 455.792969 328.238281 455.507812 327.683594 455.25 C 327.125 454.992188 326.554688 454.761719 325.972656 454.558594 C 325.390625 454.359375 324.800781 454.1875 324.203125 454.046875 L 323.996094 453.996094 C 285.550781 444.796875 252.335938 427.667969 230.9375 392.535156 C 219.492188 373.746094 213.832031 353.050781 214.121094 331.492188 C 214.449219 307.027344 216.617188 282.511719 219.425781 258.1875 C 221.40625 241.0625 229.335938 225.894531 241.652344 213.578125 C 245.945312 209.285156 246.308594 205.6875 244.238281 200.128906 C 235.757812 177.371094 237.230469 154.5625 244.757812 131.753906 C 246.882812 125.320312 249.894531 124.398438 256.050781 126.339844 C 275.105469 132.335938 289.316406 144.730469 301.808594 159.578125 L 301.933594 159.726562 C 302.714844 160.664062 303.558594 161.539062 304.46875 162.351562 C 305.382812 163.164062 306.347656 163.902344 307.367188 164.570312 C 308.390625 165.238281 309.453125 165.824219 310.5625 166.332031 C 311.671875 166.84375 312.8125 167.265625 313.984375 167.605469 C 315.152344 167.941406 316.34375 168.191406 317.554688 168.355469 C 318.761719 168.515625 319.976562 168.585938 321.195312 168.566406 C 322.414062 168.546875 323.625 168.4375 324.828125 168.238281 C 326.03125 168.035156 327.214844 167.746094 328.375 167.371094 C 367.90625 154.40625 427.882812 154.234375 465.171875 167.0625 C 466.335938 167.460938 467.523438 167.765625 468.734375 167.980469 C 469.945312 168.199219 471.164062 168.324219 472.394531 168.355469 C 473.625 168.390625 474.847656 168.328125 476.070312 168.175781 C 477.289062 168.027344 478.492188 167.785156 479.675781 167.449219 C 480.859375 167.117188 482.011719 166.699219 483.132812 166.191406 C 484.253906 165.683594 485.332031 165.097656 486.363281 164.429688 C 487.394531 163.757812 488.371094 163.015625 489.292969 162.199219 C 490.214844 161.386719 491.066406 160.503906 491.855469 159.558594 L 491.976562 159.417969 C 504.488281 144.574219 518.761719 132.273438 537.800781 126.261719 C 544.1875 124.242188 546.910156 125.777344 548.929688 131.988281 C 556.359375 154.808594 557.625 177.480469 549.589844 200.476562 C 548.457031 203.710938 548.503906 209.339844 550.519531 211.386719 C 567.585938 228.699219 575.0625 250.195312 576.957031 273.484375 C 578.789062 295.980469 580.773438 318.867188 578.683594 341.210938 C 573.25 399.3125 537.917969 433.15625 484.195312 449.980469 C 479.597656 451.417969 474.925781 452.625 470.160156 453.753906 C 469.542969 453.898438 468.933594 454.074219 468.335938 454.285156 C 467.734375 454.496094 467.148438 454.734375 466.574219 455.007812 C 466 455.277344 465.441406 455.578125 464.898438 455.910156 C 464.355469 456.238281 463.828125 456.59375 463.324219 456.980469 C 462.820312 457.363281 462.335938 457.773438 461.871094 458.210938 C 461.410156 458.644531 460.96875 459.101562 460.554688 459.585938 C 460.140625 460.066406 459.753906 460.566406 459.390625 461.089844 C 459.027344 461.609375 458.695312 462.148438 458.386719 462.707031 C 458.082031 463.261719 457.808594 463.835938 457.5625 464.421875 C 457.316406 465.007812 457.101562 465.601562 456.917969 466.210938 C 456.734375 466.820312 456.582031 467.433594 456.464844 468.058594 C 456.34375 468.683594 456.257812 469.3125 456.203125 469.945312 C 456.152344 470.578125 456.132812 471.210938 456.144531 471.847656 C 456.15625 472.480469 456.203125 473.113281 456.285156 473.746094 C 456.363281 474.375 456.476562 475 456.621094 475.617188 C 456.765625 476.238281 456.941406 476.84375 457.148438 477.445312 C 464.46875 498.652344 463.347656 521.308594 463.234375 543.820312 C 463.210938 548.992188 463.191406 554.171875 463.183594 559.351562 C 463.179688 560.417969 463.152344 561.488281 463.097656 562.554688 C 463.042969 563.621094 462.960938 564.6875 462.855469 565.75 C 462.746094 566.8125 462.613281 567.871094 462.457031 568.925781 C 462.296875 569.984375 462.113281 571.035156 461.902344 572.082031 C 461.691406 573.128906 461.457031 574.171875 461.195312 575.207031 C 460.933594 576.242188 460.648438 577.273438 460.335938 578.292969 C 460.023438 579.316406 459.6875 580.328125 459.324219 581.332031 C 458.964844 582.339844 458.578125 583.335938 458.167969 584.320312 C 457.757812 585.308594 457.320312 586.28125 456.863281 587.246094 C 456.40625 588.210938 455.921875 589.164062 455.417969 590.105469 C 454.914062 591.046875 454.386719 591.976562 453.835938 592.890625 C 453.285156 593.808594 452.710938 594.707031 452.117188 595.597656 C 451.523438 596.484375 450.90625 597.355469 450.269531 598.214844 C 449.632812 599.070312 448.972656 599.910156 448.296875 600.734375 C 447.617188 601.5625 446.917969 602.367188 446.199219 603.160156 C 445.480469 603.949219 444.746094 604.722656 443.988281 605.476562 C 443.230469 606.230469 442.457031 606.96875 441.664062 607.683594 C 440.875 608.398438 440.0625 609.097656 439.238281 609.773438 C 438.410156 610.449219 437.570312 611.105469 436.710938 611.742188 C 435.851562 612.378906 434.976562 612.992188 434.089844 613.585938 C 433.199219 614.175781 432.296875 614.746094 431.382812 615.296875 C 430.464844 615.84375 429.535156 616.371094 428.59375 616.875 C 427.648438 617.375 426.695312 617.855469 425.730469 618.3125 C 424.765625 618.769531 423.789062 619.199219 422.800781 619.609375 C 421.8125 620.015625 420.816406 620.398438 419.8125 620.757812 C 418.804688 621.117188 417.789062 621.453125 416.769531 621.761719 C 415.746094 622.074219 414.71875 622.355469 413.679688 622.617188 C 412.644531 622.875 411.601562 623.109375 410.554688 623.316406 C 409.507812 623.523438 408.453125 623.707031 407.398438 623.863281 C 406.339844 624.019531 405.28125 624.152344 404.21875 624.253906 C 403.15625 624.359375 402.089844 624.4375 401.023438 624.488281 C 399.957031 624.542969 398.890625 624.570312 397.820312 624.570312 L 396.347656 624.570312 C 395.277344 624.570312 394.210938 624.542969 393.140625 624.488281 C 392.074219 624.4375 391.007812 624.359375 389.941406 624.253906 C 388.875 624.148438 387.816406 624.019531 386.757812 623.859375 C 385.699219 623.703125 384.644531 623.519531 383.597656 623.3125 C 382.546875 623.105469 381.503906 622.871094 380.464844 622.609375 C 379.429688 622.351562 378.398438 622.0625 377.375 621.753906 C 376.351562 621.445312 375.335938 621.109375 374.328125 620.746094 C 373.320312 620.386719 372.324219 620.003906 371.335938 619.59375 C 370.347656 619.183594 369.367188 618.75 368.402344 618.292969 C 367.433594 617.835938 366.480469 617.355469 365.535156 616.851562 C 364.59375 616.347656 363.664062 615.820312 362.746094 615.269531 C 361.828125 614.71875 360.925781 614.148438 360.035156 613.554688 C 359.144531 612.957031 358.269531 612.34375 357.410156 611.707031 C 356.550781 611.066406 355.710938 610.410156 354.882812 609.730469 C 354.054688 609.054688 353.246094 608.355469 352.453125 607.636719 C 351.660156 606.917969 350.886719 606.179688 350.128906 605.425781 C 349.375 604.667969 348.636719 603.894531 347.917969 603.101562 C 347.199219 602.308594 346.5 601.496094 345.820312 600.671875 C 345.144531 599.84375 344.484375 599 343.847656 598.140625 C 343.210938 597.28125 342.59375 596.410156 342 595.519531 C 341.40625 594.628906 340.835938 593.726562 340.285156 592.808594 C 339.734375 591.890625 339.207031 590.960938 338.703125 590.015625 C 338.199219 589.074219 337.71875 588.117188 337.261719 587.152344 C 336.804688 586.183594 336.371094 585.207031 335.960938 584.21875 C 335.550781 583.230469 335.167969 582.234375 334.804688 581.226562 C 334.445312 580.21875 334.109375 579.203125 333.800781 578.179688 C 333.488281 577.15625 333.203125 576.125 332.945312 575.085938 C 332.683594 574.050781 332.449219 573.007812 332.242188 571.957031 C 332.03125 570.90625 331.851562 569.855469 331.691406 568.796875 C 331.535156 567.738281 331.40625 566.675781 331.300781 565.613281 C 331.195312 564.546875 331.117188 563.480469 331.0625 562.414062 C 331.011719 561.34375 330.984375 560.273438 330.984375 559.207031 Z M 330.988281 558.8125 "/></g></svg>