<svg xmlns="http://www.w3.org/2000/svg" xmlns:xlink="http://www.w3.org/1999/xlink" width="1000" zoomAndPan="magnify" viewBox="0 0 750 749.999995" height="1000" preserveAspectRatio="xMidYMid meet" version="1.2"><g id="bb2f4d0cb1"><path style=" stroke:none;fill-rule:nonzero;fill:#d4af37;fill-opacity:1;" d="M 375 0 C 167.855469 0 0 167.855469 0 375 C 0 582.144531 167.855469 750 375 750 C 582.144531 750 750 582.144531 750 375 C 749.675781 167.855469 581.816406 0 375 0 Z M 590.910156 479.871094 C 586.6875 507.46875 562.664062 527.597656 534.738281 527.597656 L 214.933594 527.597656 C 187.011719 527.597656 162.988281 507.46875 158.765625 479.871094 C 154.871094 454.222656 150.972656 418.507812 150.648438 374.675781 C 150.972656 330.84375 154.546875 295.453125 158.765625 269.480469 C 162.988281 241.882812 187.011719 221.753906 214.933594 221.753906 L 534.738281 221.753906 C 562.664062 221.753906 586.6875 241.882812 590.910156 269.480469 C 594.804688 295.128906 598.703125 330.84375 599.027344 374.675781 C 598.703125 418.507812 594.804688 454.222656 590.910156 479.871094 Z M 590.910156 479.871094 "/><path style=" stroke:none;fill-rule:nonzero;fill:#d4af37;fill-opacity:1;" d="M 327.597656 313.960938 L 327.597656 435.714844 L 440.910156 375 Z M 327.597656 313.960938 "/></g></svg>