<svg xmlns="http://www.w3.org/2000/svg" xmlns:xlink="http://www.w3.org/1999/xlink" width="1000" zoomAndPan="magnify" viewBox="0 0 750 749.999995" height="1000" preserveAspectRatio="xMidYMid meet" version="1.2"><defs><clipPath id="7a6028985f"><path d="M 20 11 L 482 11 L 482 740.90625 L 20 740.90625 Z M 20 11 "/></clipPath><clipPath id="24a70d5a72"><path d="M 19 9 L 484 9 L 484 740.90625 L 19 740.90625 Z M 19 9 "/></clipPath></defs><g id="0615d9e0f2"><path style=" stroke:none;fill-rule:nonzero;fill:#d4af37;fill-opacity:1;" d="M 479.449219 137.554688 C 467.675781 97.300781 459.296875 56.546875 482.296875 11.148438 C 485.355469 10.921875 510.464844 11.402344 511.371094 11.488281 C 516.742188 11.996094 522.15625 12.753906 527.453125 13.734375 C 627.632812 32.199219 709.636719 130.347656 723.699219 183.710938 C 728.257812 201.21875 728.832031 210.296875 730.089844 224.609375 C 735.089844 284.277344 694.5625 385.675781 629.621094 415.582031 C 663.476562 387.890625 720.257812 243.179688 554.445312 159.890625 C 511.082031 138.105469 479.753906 131.929688 479.449219 137.554688 Z M 479.449219 137.554688 "/><g clip-rule="nonzero" clip-path="url(#7a6028985f)"><path style=" stroke:none;fill-rule:evenodd;fill:#d4af37;fill-opacity:1;" d="M 357.039062 12.066406 L 481.871094 11.613281 C 477.347656 86.234375 481.40625 515.421875 481.40625 515.421875 C 480.507812 585.964844 450.210938 638.425781 413.570312 673.246094 C 410.410156 676.414062 407.25 679.582031 403.625 682.289062 C 356.59375 722.09375 310.464844 740.636719 247.148438 740.183594 C 184.738281 739.28125 137.699219 715.761719 97.90625 681.390625 C 68.0625 655.617188 44.089844 622.144531 30.523438 576.011719 C 1.125 474.71875 39.113281 376.125 123.234375 318.691406 C 124.59375 317.332031 126.394531 315.96875 128.207031 315.070312 C 166.648438 288.386719 226.351562 272.558594 281.972656 281.605469 L 281.972656 409.140625 C 243.53125 399.1875 209.160156 407.78125 183.835938 429.03125 C 183.386719 429.03125 183.386719 429.492188 182.925781 429.941406 C 158.511719 450.746094 144.484375 481.503906 146.296875 516.320312 C 150.820312 578.734375 202.375 617.625 258.453125 614.914062 C 258.453125 614.914062 258.90625 614.914062 258.90625 614.914062 C 313.175781 609.484375 357.949219 565.167969 356.59375 505.464844 Z M 357.039062 12.066406 "/></g><g clip-rule="nonzero" clip-path="url(#24a70d5a72)"><path style="fill:none;stroke-width:0.17;stroke-linecap:round;stroke-linejoin:miter;stroke:#000000;stroke-opacity:1;stroke-miterlimit:1.5;" d="M 21545.698786 20747.500233 L 21573.301424 20747.400039 C 21572.301209 20763.900124 21573.198638 20858.801306 21573.198638 20858.801306 C 21572.999978 20874.399642 21566.300786 20885.999712 21558.198876 20893.699118 C 21557.500108 20894.399614 21556.801339 20895.10011 21555.999786 20895.698684 C 21545.600319 20904.500226 21535.400377 20908.600414 21521.399965 20908.50022 C 21507.599941 20908.300695 21497.198747 20903.100098 21488.399796 20895.500023 C 21481.800798 20889.801046 21476.500007 20882.399631 21473.500227 20872.198825 C 21466.999697 20849.801103 21475.399598 20828.000227 21494.000306 20815.300612 C 21494.300889 20815.000029 21494.699074 20814.698583 21495.099851 20814.499922 C 21503.599947 20808.599693 21516.801396 20805.099806 21529.100234 20807.100235 L 21529.100234 20835.300583 C 21520.600139 20833.099766 21513.000063 20835.000001 21507.400416 20839.698763 C 21507.301086 20839.698763 21507.301086 20839.800685 21507.199164 20839.900015 C 21501.80077 20844.500311 21498.699068 20851.301424 21499.099845 20858.999967 C 21500.10006 20872.800854 21511.499741 20881.40028 21523.899637 20880.800843 C 21523.899637 20880.800843 21523.999831 20880.800843 21523.999831 20880.800843 C 21535.999814 20879.60024 21545.900038 20869.801074 21545.600319 20856.599625 Z M 21545.698786 20747.500233 " transform="matrix(4.522467,0,0,4.522467,-97082.680866,-93817.826608)"/></g></g></svg>